<svg version="1.1" id="Layer_1" xmlns="http://www.w3.org/2000/svg" xmlns:xlink="http://www.w3.org/1999/xlink" x="0px" y="0px"
	 width="100%" viewBox="0 0 1024 1024" enable-background="new 0 0 1024 1024" xml:space="preserve">
<path fill="#000000" opacity="1.000000" stroke="none" 
	d="
M566.000000,1025.000000 
	C377.333344,1025.000000 189.166672,1025.000000 1.000000,1025.000000 
	C1.000000,683.666687 1.000000,342.333344 1.000000,1.000000 
	C342.333344,1.000000 683.666687,1.000000 1025.000000,1.000000 
	C1025.000000,342.333344 1025.000000,683.666687 1025.000000,1025.000000 
	C872.166687,1025.000000 719.333313,1025.000000 566.000000,1025.000000 
M692.754517,649.036926 
	C693.202087,648.351501 693.649658,647.666077 693.991638,646.988220 
	C693.991638,646.988220 693.995850,647.094055 694.733032,647.035828 
	C696.514099,645.372375 698.295166,643.708984 700.014099,642.000977 
	C700.014099,642.000977 700.043457,642.071533 700.764404,642.036255 
	C703.526794,638.979431 706.438660,636.041504 708.997559,632.822876 
	C710.631470,630.767700 711.743103,628.297302 713.018616,626.007751 
	C713.018616,626.007751 713.031128,626.077209 713.778198,626.034485 
	C715.216003,623.358154 716.653870,620.681885 718.017517,618.007874 
	C718.017517,618.007874 718.024109,618.081726 718.802795,618.027588 
	C719.559937,616.575134 720.447327,615.174683 721.051819,613.661316 
	C723.757812,606.887024 726.914490,600.233276 728.922363,593.252441 
	C732.617615,580.404785 730.670044,567.132751 731.002441,553.100830 
	C731.005920,551.438354 731.011719,549.775879 731.012573,548.113403 
	C731.042480,489.427612 731.071838,430.741821 731.809204,371.711090 
	C732.528809,368.926941 732.905884,365.993927 734.038147,363.389191 
	C736.503967,357.716370 739.214294,352.137085 742.094604,346.661530 
	C744.178162,342.700653 745.132996,339.112488 740.525757,335.992737 
	C744.164612,330.743347 748.149048,326.116669 750.874451,320.839752 
	C757.377441,308.248993 764.116333,295.718262 765.113098,281.033752 
	C766.122986,266.155457 767.804504,251.314240 762.048767,236.936493 
	C758.675415,228.510056 755.949829,219.748703 751.764893,211.748962 
	C748.894226,206.261505 744.014587,201.824997 740.017700,196.988022 
	C740.017700,196.988022 740.087524,196.975311 740.010498,196.219879 
	C736.422302,192.483398 733.219177,188.245270 729.156616,185.126923 
	C722.920837,180.340561 716.361938,175.822998 709.441895,172.123352 
	C702.617676,168.474976 695.413879,164.640640 687.944824,163.307877 
	C677.188416,161.388550 666.048706,161.462387 655.058960,161.054413 
	C646.441162,160.734512 638.161926,162.021393 629.704773,164.650116 
	C619.172119,167.923950 610.258423,173.704300 601.008301,179.089050 
	C598.639771,180.467773 596.929871,182.977921 594.989197,184.977631 
	C594.989197,184.977631 594.986633,184.905289 594.243774,184.988754 
	C592.642395,186.316986 591.041016,187.645203 589.162659,188.961197 
	C588.962341,189.064590 588.900513,189.222229 588.441162,189.949570 
	C587.598572,190.955795 586.756042,191.962006 585.983704,192.983215 
	C585.983704,192.983215 585.968872,192.912994 585.256348,192.986801 
	C584.809387,193.646423 584.362427,194.306046 583.987549,194.989090 
	C583.987549,194.989090 583.950745,194.922836 583.317139,195.135406 
	C581.864136,197.052368 580.411072,198.969345 578.359375,201.108688 
	C578.050110,201.398163 577.740906,201.687622 577.019653,202.098190 
	C576.676392,202.539322 576.333130,202.980438 575.471741,204.020004 
	C575.620117,204.530579 575.768494,205.041168 575.499023,205.708710 
	C575.433105,205.842789 575.299133,205.985703 575.315186,206.109116 
	C575.350647,206.382126 575.461548,206.645340 574.899719,206.139114 
	C574.229736,207.441223 573.559753,208.743347 573.018066,210.030396 
	C573.018066,210.030396 573.010559,209.901474 572.254639,209.991302 
	C569.472900,215.655365 566.691101,221.319412 563.979492,226.991791 
	C563.979492,226.991791 563.966492,226.922287 563.180298,226.997147 
	C562.773926,227.734619 562.235107,228.429596 561.982483,229.216431 
	C560.339478,234.334381 558.658142,239.444839 557.242859,244.626984 
	C556.962952,245.652023 555.471802,248.456131 558.629822,247.776337 
	C558.629822,247.776337 558.633850,248.247650 558.633850,248.247650 
	C558.633850,248.247650 559.053650,248.460373 558.261047,247.622726 
	C556.138000,248.079620 554.015625,248.932068 551.891907,248.935333 
	C502.970612,249.010544 454.049011,248.939590 405.128021,249.078720 
	C400.371429,249.092239 395.618225,250.297440 389.945923,250.967712 
	C376.407318,250.307983 363.667999,252.717896 351.308594,258.778687 
	C339.967834,264.339996 329.196320,270.735474 320.838745,279.972961 
	C313.302368,288.302826 306.577515,297.689728 301.186737,307.536743 
	C296.805542,315.539734 293.733368,324.719360 292.260223,333.733368 
	C290.568695,344.083618 291.002960,354.825958 290.989960,365.398590 
	C290.903625,435.674011 290.890442,505.949768 291.068695,576.224854 
	C291.080383,580.837952 292.873230,585.446533 293.958221,590.903870 
	C295.726990,597.177490 297.047211,603.626343 299.408112,609.668579 
	C301.256989,614.400269 304.395020,618.628113 306.982330,623.012268 
	C306.982330,623.012268 306.911530,623.018127 306.964172,623.763367 
	C308.296356,625.533142 309.628510,627.302856 310.973083,629.001953 
	C310.973083,629.001953 310.901337,629.002686 311.033569,629.570984 
	C311.363037,629.748962 311.692505,629.926880 312.014740,629.998413 
	C312.014740,629.998413 311.908173,630.003052 311.960724,630.748108 
	C314.370422,634.077271 316.533508,637.628479 319.267334,640.665894 
	C321.481537,643.126038 324.382172,644.968384 326.983368,647.010315 
	C326.983368,647.010315 326.908783,647.009766 326.962555,647.738464 
	C327.633301,648.187378 328.304077,648.636292 328.987457,649.014893 
	C328.987457,649.014893 328.920898,649.040894 329.122925,649.701721 
	C332.099884,651.500366 335.076843,653.299011 338.041870,654.964478 
	C338.041870,654.964478 337.908142,654.963989 337.963318,655.732178 
	C349.773651,664.739075 363.397888,668.713989 378.398407,670.886658 
	C428.715149,670.922913 479.032410,671.113342 529.348450,670.945740 
	C568.563721,670.815186 607.777466,670.239197 647.793518,670.023499 
	C653.294861,668.659424 659.006958,667.831360 664.235962,665.774841 
	C669.097961,663.862549 673.445129,660.640930 678.670959,657.766724 
	C681.789673,655.488892 684.908386,653.211060 688.745117,651.022095 
	C689.856201,650.361694 690.967285,649.701294 692.012024,649.015686 
	C692.012024,649.015686 692.021851,649.085938 692.754517,649.036926 
M408.711060,776.868530 
	C408.774048,775.926453 408.837036,774.984436 409.500488,773.711121 
	C415.423157,765.466248 420.188873,765.375977 426.093964,773.370178 
	C426.357880,773.727478 426.884583,773.890686 427.185059,775.058838 
	C427.118073,785.184998 426.987244,795.311768 427.071991,805.436646 
	C427.081604,806.587158 428.302002,807.727539 428.997833,809.606201 
	C432.697418,817.841736 439.766571,820.447021 446.365356,815.696472 
	C448.264801,814.329102 449.427704,811.938660 451.729309,809.781067 
	C452.156891,807.583374 452.917786,805.390991 452.953461,803.186951 
	C453.095734,794.404541 453.053772,785.617981 452.967682,776.834106 
	C452.954590,775.496460 452.349304,774.164673 452.002808,772.054260 
	C449.995575,762.893921 446.125946,754.742249 437.449493,750.298767 
	C427.828461,745.371521 417.950470,744.898804 407.980896,751.949341 
	C407.980896,743.311401 408.218140,735.548523 407.903656,727.808044 
	C407.664429,721.919678 403.108978,716.262024 397.101349,715.885254 
	C391.494873,715.533447 387.441833,716.970154 384.023346,721.983154 
	C383.661072,722.925537 382.984253,723.867249 382.982269,724.810425 
	C382.924408,752.091248 382.921661,779.372253 382.976227,806.653137 
	C382.978516,807.794739 383.616577,808.935120 383.985413,810.010803 
	C383.985413,810.010803 383.915405,810.020142 383.998840,810.600586 
	C384.335510,810.737610 384.672180,810.874573 385.271179,811.646912 
	C387.500732,816.128662 391.122406,818.297363 396.098267,817.759583 
	C401.056732,817.223816 405.271423,815.529175 406.974548,809.909790 
	C407.317413,808.492981 407.940582,807.079590 407.957855,805.658813 
	C408.074371,796.082397 408.062469,786.504395 407.980194,776.971436 
	C407.980194,776.971436 408.018341,777.085754 408.711060,776.868530 
M708.898193,727.253296 
	C708.601990,726.135925 708.305420,725.018616 708.009644,723.901123 
	C706.675598,718.860046 700.731201,715.568176 693.678101,715.964783 
	C689.778931,716.184021 686.815613,719.588135 685.237061,725.283752 
	C685.124573,725.763367 684.913635,726.242981 684.913635,726.722595 
	C684.913696,752.623962 684.917480,778.525452 684.991882,804.426636 
	C684.995300,805.622314 685.649109,806.816101 686.001343,808.785767 
	C686.110291,813.422424 688.660339,816.321106 692.884949,817.543823 
	C697.548218,818.893555 702.301392,818.391235 705.573914,814.638672 
	C707.172424,812.805725 707.235291,809.633606 708.796997,806.691345 
	C708.860168,780.462891 708.923340,754.234497 708.898193,727.253296 
M582.924561,805.886841 
	C582.871277,787.634399 582.817993,769.381958 583.723633,751.036865 
	C589.314880,750.694580 594.936340,750.604370 600.489014,749.939514 
	C606.095276,749.268311 609.961792,744.684692 609.984558,739.457336 
	C610.007263,734.263794 605.936279,729.935608 599.621399,728.293762 
	C580.437012,728.185120 561.252563,728.065674 542.068054,728.011841 
	C541.378113,728.009888 540.686340,728.655945 539.291077,729.047852 
	C537.434509,730.644409 535.253479,731.990295 533.786987,733.888245 
	C530.444763,738.213867 532.151733,747.042297 536.963440,748.389282 
	C542.242310,749.866943 547.901428,750.002197 553.402039,750.662720 
	C555.265625,750.886475 557.151062,750.928589 558.990356,751.982788 
	C558.810791,770.494812 558.607239,789.006714 558.519897,807.519165 
	C558.515320,808.481079 559.501648,809.447754 560.044312,811.078369 
	C562.627380,816.914490 567.480530,818.673706 574.799316,817.428528 
	C578.265442,816.838928 582.458923,811.144775 582.924561,805.886841 
M673.790588,808.713562 
	C673.859863,798.096741 673.947144,787.479980 673.955566,776.863098 
	C673.956116,776.191650 673.342285,775.519592 672.876099,774.112183 
	C671.025635,765.600891 666.822266,758.547302 660.086609,752.953430 
	C651.631165,745.931152 641.790588,744.045654 631.209167,745.035889 
	C623.238770,745.781738 616.496643,748.792603 612.383545,756.199158 
	C610.005371,760.481812 610.511597,764.666687 613.274841,768.346375 
	C615.592590,771.432739 623.222046,772.424500 626.598083,769.572021 
	C635.752625,761.837402 643.202454,767.275330 649.367981,777.009827 
	C641.578918,777.009827 634.162598,777.026184 626.746399,777.005920 
	C616.695923,776.978455 608.606689,784.622559 608.000549,794.743286 
	C607.417725,804.474487 612.063965,811.247375 620.451660,815.355103 
	C628.670105,819.379883 641.560486,820.044250 647.648438,811.348572 
	C648.386841,810.293884 649.761902,809.684998 651.044678,808.716431 
	C653.733887,817.212219 657.822021,820.009583 665.339539,817.278931 
	C668.468994,816.142212 670.491455,811.957764 673.790588,808.713562 
M744.843872,762.564758 
	C744.911743,750.980713 745.005127,739.396606 745.000671,727.812561 
	C745.000305,726.851013 744.338257,725.889709 743.894165,724.235840 
	C743.311829,723.241699 742.785889,722.209106 742.137512,721.260132 
	C739.172974,716.920837 733.066650,714.700928 728.086304,716.111938 
	C724.625793,717.092285 721.034729,722.539307 721.022827,727.220947 
	C720.955322,753.852234 720.912048,780.483765 720.948181,807.115051 
	C720.956909,813.534668 727.022949,818.466614 733.215881,817.815430 
	C741.007935,816.996155 745.789917,809.905518 745.065552,803.751587 
	C744.575195,799.585571 745.857483,796.492310 748.980957,794.532166 
	C754.511108,800.723328 759.712219,806.657776 765.041687,812.474670 
	C768.810120,816.587646 773.258667,818.717285 779.141113,817.575012 
	C784.240967,816.584778 789.069153,808.261902 786.097351,804.242859 
	C781.310486,797.769104 776.270569,791.442444 770.878967,785.467407 
	C765.735901,779.767883 765.395081,779.037598 770.641968,773.933777 
	C773.704407,770.954773 777.042175,768.260742 780.153687,765.329712 
	C784.772522,760.978760 786.167419,755.833496 784.055847,751.498108 
	C780.739563,744.689270 770.848633,742.737427 765.375183,748.119263 
	C759.222229,754.169250 753.439758,760.594971 747.431763,766.794800 
	C746.850220,767.394897 745.815186,767.555420 744.035767,768.342346 
	C744.035767,766.015015 744.035767,764.445007 744.843872,762.564758 
M259.001190,761.157288 
	C258.996643,757.471130 258.992065,753.784973 259.927124,750.068542 
	C270.250916,750.075867 280.575104,750.127075 290.898132,750.043091 
	C292.435822,750.030518 293.968323,749.382263 296.177765,749.091675 
	C303.331848,746.405579 306.351013,736.425720 298.445587,731.136780 
	C295.736145,729.324097 292.051178,728.221252 288.776245,728.134094 
	C276.006836,727.794556 263.211426,728.319885 250.449310,727.863220 
	C243.189697,727.603516 238.998840,730.958679 235.247253,737.200989 
	C234.827606,738.205872 234.045044,739.209473 234.041733,740.215759 
	C233.971283,761.642456 233.967758,783.069580 234.070328,804.496033 
	C234.074097,805.280518 235.284470,806.059265 235.986389,807.593689 
	C236.746674,812.093384 239.444046,814.803406 244.337509,816.699219 
	C260.227997,816.797913 276.118469,816.896545 292.719879,816.897217 
	C297.410858,815.653259 300.467255,812.592163 301.519501,807.969849 
	C303.224670,800.479553 298.178833,795.134460 289.428314,795.021423 
	C280.941315,794.911682 272.445740,794.803589 263.966034,795.074158 
	C259.988342,795.201050 258.761536,793.905701 258.897064,789.971741 
	C259.209656,780.900513 258.087006,782.037292 266.972565,781.995605 
	C268.774872,781.987122 270.593628,782.650208 272.379761,782.551392 
	C278.097870,782.235107 284.130341,782.654907 289.374786,780.851624 
	C291.920685,779.976257 294.574982,774.665955 294.343719,771.575745 
	C293.995667,766.924683 290.545410,763.161560 284.423340,762.341309 
	C275.959991,762.256104 267.496674,762.170837 259.001190,761.157288 
M530.564209,797.360352 
	C534.500916,791.401184 534.826294,784.874756 534.078369,777.984863 
	C531.683289,755.923645 510.408356,740.246887 487.192261,745.902527 
	C477.520966,748.258484 471.089020,755.128479 465.947662,763.444458 
	C457.619659,776.914612 459.730652,795.565308 470.205811,806.595886 
	C481.363495,818.345215 499.534027,821.555298 514.783813,814.095337 
	C521.947571,810.591003 527.651611,805.702637 530.564209,797.360352 
M355.764893,770.875671 
	C359.914276,773.070557 367.084991,772.507446 370.015656,769.568542 
	C373.493042,766.081360 374.112061,761.731567 371.616760,757.741028 
	C369.740784,754.740906 366.908325,752.103271 363.984924,750.034546 
	C351.468719,741.177734 332.489014,743.980347 320.496216,754.859131 
	C302.278839,771.384094 306.219208,804.936707 329.593201,814.708984 
	C342.338623,820.037598 361.755005,817.812134 369.346497,808.238220 
	C373.117035,803.483093 374.180145,796.798218 371.039581,793.712830 
	C366.256042,789.013184 360.154510,788.839905 354.477997,792.922424 
	C347.374298,798.031494 340.446686,796.724304 334.992279,789.645203 
	C331.305847,784.860718 330.916260,776.027527 338.891663,769.551819 
	C344.611969,764.907166 348.086151,764.819885 355.764893,770.875671 
z"/>
<path fill="#0A1A25" opacity="1.000000" stroke="none" 
	d="
M688.027100,650.933228 
	C684.908386,653.211060 681.789673,655.488892 677.964478,657.852661 
	C667.329102,661.373352 657.400146,664.808105 646.987305,668.218750 
	C643.677673,668.495911 640.851868,668.797241 637.734070,668.794861 
	C636.641418,668.329590 635.840942,668.027466 635.040222,668.026733 
	C605.853333,668.000488 576.666382,667.987610 547.479675,668.054260 
	C546.326172,668.056885 545.174500,668.853943 543.656738,669.436584 
	C542.519470,669.487549 541.747498,669.382751 540.782104,668.967896 
	C535.399902,668.859375 530.210999,669.060852 524.602417,669.418091 
	C522.113647,669.463745 520.044434,669.353760 517.778198,668.938232 
	C512.727966,668.829956 507.874847,669.027283 502.595886,669.378784 
	C499.772125,669.433899 497.374237,669.334839 494.776611,668.930542 
	C493.632996,668.417053 492.689301,668.027466 491.745270,668.026672 
	C457.486145,667.995850 423.226959,667.986938 388.967926,668.054199 
	C387.608521,668.056885 386.250580,668.831970 384.468414,669.343872 
	C382.024719,669.314758 380.004608,669.189026 377.676819,668.928589 
	C373.810547,668.021423 370.098389,667.659912 366.722504,666.398438 
	C357.044708,662.782288 347.503235,658.801453 337.908142,654.963989 
	C337.908142,654.963989 338.041870,654.964478 338.039062,654.674683 
	C334.997803,652.603577 331.959351,650.822266 328.920898,649.040894 
	C328.920898,649.040894 328.987457,649.014893 329.305542,648.712158 
	C328.718658,647.942871 327.813721,647.476318 326.908783,647.009766 
	C326.908783,647.009766 326.983368,647.010315 327.258331,646.765015 
	C325.114288,644.008789 322.675964,641.516174 320.281311,638.982239 
	C317.470459,636.007874 314.697540,632.997681 311.908173,630.003052 
	C311.908173,630.003052 312.014740,629.998413 312.141541,629.619385 
	C311.812683,629.161194 311.356995,629.081970 310.901337,629.002686 
	C310.901337,629.002686 310.973083,629.001953 311.320221,628.793518 
	C310.082062,626.729431 308.496796,624.873779 306.911530,623.018127 
	C306.911530,623.018127 306.982330,623.012268 307.332031,622.801331 
	C303.410736,611.729675 299.139740,600.868958 294.884338,589.590210 
	C294.246063,582.734863 293.035217,576.298584 293.023407,569.859985 
	C292.889526,496.938293 293.054871,424.015961 292.866791,351.094482 
	C292.812866,330.178650 299.010315,311.503235 311.050934,294.673676 
	C323.262634,277.605042 339.071442,265.097717 359.015411,258.437317 
	C363.646179,264.730865 363.646179,264.730865 362.235565,269.144501 
	C364.826141,271.504944 367.469513,273.913483 369.924225,276.550781 
	C368.823303,277.122253 367.911011,277.464905 366.922913,277.488281 
	C364.757996,275.664215 364.389496,275.890015 363.846863,279.075073 
	C363.450104,279.589630 363.205475,279.943329 362.617065,280.151947 
	C361.458008,279.147003 360.642731,278.287201 359.523712,277.107056 
	C357.675995,281.445343 355.540070,284.593750 350.566040,284.252106 
	C349.794556,284.199127 348.328125,286.133606 348.147552,287.298523 
	C347.769470,289.737762 347.826111,292.302277 348.130554,294.762604 
	C348.264099,295.841492 349.514496,297.707031 350.133972,297.657806 
	C356.309021,297.166901 357.583832,302.200348 359.802063,306.276123 
	C357.955811,308.172455 356.080994,309.622833 354.649170,311.425171 
	C348.713654,318.896759 348.593353,328.856018 354.195618,335.867188 
	C360.618591,343.905457 371.589905,346.397858 380.761383,341.902191 
	C389.484039,337.626617 393.950043,328.757019 391.966034,319.649567 
	C389.905640,310.191437 381.988403,303.837311 371.012878,302.448669 
	C371.531006,300.427155 372.038300,298.781464 372.532074,297.179596 
	C382.168182,299.452850 382.168182,299.452850 384.359070,293.074341 
	C387.243103,298.450226 392.062164,296.842163 396.294159,296.984283 
	C400.430542,297.123199 400.030487,293.491943 401.114105,291.119232 
	C402.769714,287.494019 404.374969,283.845825 406.463959,280.127441 
	C413.616882,280.092712 420.307434,280.137909 427.060364,280.535400 
	C431.647888,285.302979 436.095306,285.034882 439.453857,280.094238 
	C441.889526,280.019348 443.873383,280.040680 445.856750,280.019226 
	C448.095520,279.995026 451.226318,280.598206 450.738098,277.137421 
	C450.558746,275.865845 447.594635,274.192780 445.815674,274.083099 
	C439.230225,273.677124 432.609283,273.847260 426.015137,273.441956 
	C427.758331,271.779999 429.408600,270.351685 431.231506,269.195618 
	C439.202759,264.140320 451.843262,265.120087 458.283081,271.448914 
	C459.320618,272.468628 459.533417,274.391602 459.965637,275.942169 
	C460.290375,277.107239 460.355835,278.344604 460.536713,279.549774 
	C461.070282,279.642242 461.603821,279.734741 462.137360,279.827240 
	C462.536865,278.002411 462.794891,276.130035 463.386536,274.369781 
	C463.769592,273.230072 464.640381,272.254272 465.292633,271.205017 
	C466.277954,272.024475 467.263245,272.843964 467.985046,273.861267 
	C465.366058,275.993256 465.360962,278.390289 467.810638,279.690887 
	C469.244019,280.451935 471.607361,279.461395 473.552368,279.258850 
	C472.964264,277.364716 472.376129,275.470581 472.006073,273.231720 
	C477.171509,270.937195 481.982605,267.927429 487.096100,267.270264 
	C496.220154,266.097717 505.525238,266.290192 514.757874,266.024933 
	C518.992310,265.903259 524.034973,264.727295 523.505859,271.468353 
	C527.625183,270.921936 531.183533,270.461060 534.738525,269.975525 
	C538.991272,269.394714 542.126526,264.673737 542.042725,259.650726 
	C541.947693,253.946213 537.733521,256.236206 535.135559,256.115814 
	C532.160278,255.977951 530.320801,255.191788 530.460388,251.968201 
	C536.613403,251.932739 542.306519,251.989746 548.011230,252.415985 
	C550.215942,254.147583 552.409058,255.509949 554.602112,256.872314 
	C555.401611,255.273331 556.201172,253.674347 557.354248,251.935257 
	C558.156433,250.683548 558.605042,249.571960 559.053650,248.460373 
	C559.053650,248.460373 558.633850,248.247650 558.633850,248.247650 
	C558.633850,248.247650 558.629822,247.776337 558.858398,247.243820 
	C560.220154,242.416718 561.353394,238.122131 562.688477,233.820938 
	C563.007507,233.754562 563.124634,233.694824 563.241760,233.635056 
	C563.126709,233.420746 563.011658,233.206451 562.896545,232.655701 
	C563.198914,231.742676 563.501282,231.166122 564.036377,230.910858 
	C569.718018,231.926895 571.566589,234.929962 571.111877,240.395920 
	C570.618713,246.324463 570.898254,252.328857 571.073730,258.293304 
	C571.117554,259.784851 571.664673,262.150848 572.647705,262.577515 
	C578.020508,264.909393 576.771240,269.449310 577.006409,273.652740 
	C577.455200,281.675171 578.107971,289.686218 578.697021,297.996918 
	C582.648071,296.724213 585.342407,295.856323 588.289978,295.230865 
	C591.481445,300.647156 594.589844,305.734467 597.286072,311.031494 
	C598.628479,313.668823 599.922424,316.667328 600.016846,319.542542 
	C600.346863,329.589661 600.144592,339.654266 600.144592,350.546875 
	C606.544067,347.762360 612.011108,345.000702 617.742432,342.993530 
	C623.914062,340.832123 629.783997,335.615570 637.151733,340.287079 
	C637.541504,340.730652 637.833008,340.878662 638.538147,340.900452 
	C639.601990,340.959778 640.300171,341.050598 641.049072,341.426239 
	C641.760010,341.732056 642.420410,341.753113 643.412964,341.745056 
	C644.162964,341.855133 644.580688,341.994293 645.049072,342.467041 
	C646.563538,345.789703 648.215820,345.526245 650.251526,343.031067 
	C650.671692,343.041962 650.834656,343.106049 651.190674,343.457153 
	C652.041687,344.239258 652.830444,344.628510 653.333008,345.249420 
	C654.795410,347.056335 656.143188,348.955933 657.535950,350.819153 
	C659.107483,348.845978 660.679016,346.872803 662.304626,344.831726 
	C664.673584,346.162811 667.364136,346.823853 668.525574,348.527344 
	C670.248840,351.055115 671.348267,354.260712 671.749451,357.304810 
	C671.896362,358.420105 669.234863,359.842102 667.966492,361.226746 
	C666.910156,362.379883 665.245911,363.645721 665.183960,364.926178 
	C664.889954,371.001251 665.052612,377.098419 665.052612,383.411499 
	C667.689392,383.411499 669.788025,383.411499 671.653076,383.688477 
	C667.668640,386.442932 663.917786,388.920380 660.090576,391.072876 
	C659.778442,390.387268 659.560181,390.011627 659.281799,389.687622 
	C659.252014,389.652985 658.871765,389.919525 658.654053,390.046326 
	C659.158752,390.492096 659.663513,390.937836 659.991638,391.694641 
	C657.967224,393.371338 656.119385,394.737061 653.781799,396.085815 
	C652.640869,396.119049 651.989685,396.169220 651.128845,395.978027 
	C649.197266,392.857330 647.475281,389.978027 646.003174,386.930298 
	C645.575256,386.173553 644.897461,385.585205 643.977905,384.752258 
	C641.627869,382.190796 639.922485,378.941528 637.302368,377.809448 
	C634.471313,376.586243 630.578735,376.596161 627.530518,377.442139 
	C624.457642,378.294952 623.376892,381.803955 624.330505,384.811676 
	C625.421936,388.254608 627.371765,391.425415 628.572388,394.787476 
	C627.724243,395.334839 627.252380,395.809204 626.780457,396.283539 
	C627.961121,396.481445 629.141846,396.679352 630.595703,397.075256 
	C632.048035,399.471558 633.227112,401.669922 634.020020,403.952148 
	C633.405823,405.809052 633.177856,407.582092 632.949951,409.355164 
	C634.367310,409.393860 635.784729,409.432526 637.441772,409.651520 
	C637.844971,410.402557 638.008484,410.973267 638.025024,411.886017 
	C636.917847,413.338531 635.705750,414.325134 635.079407,415.599701 
	C634.602600,416.570007 634.399292,418.646027 634.884827,418.954559 
	C637.367615,420.532288 640.113403,421.696136 642.918701,423.258759 
	C643.366699,424.016144 643.663208,424.519470 643.965149,425.413940 
	C645.429321,432.876953 646.888123,439.948853 647.951294,447.019836 
	C645.531799,449.068390 643.400879,451.030365 641.585449,453.250366 
	C641.269653,453.636505 642.035217,455.483154 642.761292,455.971741 
	C643.398743,456.400665 644.834900,456.148193 645.642578,455.699951 
	C646.850952,455.029297 647.817688,453.923340 648.988403,453.447205 
	C649.078003,456.928192 649.066406,459.964539 648.682861,463.007416 
	C647.172729,463.571442 645.478394,463.828857 644.988831,464.736298 
	C642.293945,469.731812 637.889221,470.627502 632.729126,471.493011 
	C627.794556,472.320709 626.671814,470.720734 627.017517,466.545868 
	C627.262451,463.588654 625.763489,462.743256 623.083496,462.573700 
	C623.056763,460.434235 623.103271,458.718353 623.524414,456.990967 
	C624.897644,455.812714 625.896179,454.645996 626.894653,453.479248 
	C625.541992,452.654388 624.189270,451.829559 622.649475,450.706543 
	C622.692688,448.974365 622.923096,447.540405 623.473755,446.322510 
	C624.258362,446.478516 624.722595,446.418457 625.186890,446.358398 
	C625.104492,446.078156 624.994934,445.549927 624.943848,445.555511 
	C624.339966,445.621674 623.744812,445.767639 622.713379,445.877075 
	C621.972351,444.532898 621.665283,443.204224 621.802307,441.910034 
	C627.781860,441.355438 628.273438,439.924377 624.816406,434.208527 
	C623.274536,434.466919 621.689636,434.732574 619.931519,434.655396 
	C615.459656,423.667206 611.160950,413.021790 606.922974,402.010590 
	C607.555359,400.343750 608.127075,399.042725 608.872009,397.347443 
	C605.950012,395.885010 603.231323,394.524323 600.259338,392.967896 
	C596.321655,388.745148 592.866882,384.474915 588.907898,380.738892 
	C578.891846,371.286865 568.206299,362.737946 554.759888,357.750671 
	C531.731628,346.620667 507.804535,343.806213 483.415833,349.647675 
	C408.932709,367.487579 368.319305,455.186340 416.228119,523.700073 
	C418.372162,526.766296 419.184387,529.625427 418.875153,533.339172 
	C416.175232,565.766602 404.048767,594.177856 382.937500,618.844055 
	C382.485321,619.372375 382.238251,620.076233 381.594482,621.244263 
	C383.529907,620.893433 384.843475,620.762024 386.096283,620.412598 
	C419.088104,611.211060 447.429352,593.630798 473.458618,571.887573 
	C474.592712,570.940247 475.795746,570.075439 477.228485,569.433411 
	C504.012207,576.065063 529.831299,574.703125 554.843262,563.046448 
	C570.107361,555.932739 583.336914,546.139343 595.127563,534.147827 
	C596.110229,535.233215 596.653442,536.588257 597.546204,536.882629 
	C601.710693,538.255615 601.500488,540.213989 598.752380,542.895264 
	C598.054565,543.575989 597.501770,544.477905 597.102600,545.376160 
	C596.407715,546.939758 595.884216,548.579590 595.288879,550.187439 
	C597.044556,550.791565 598.848755,552.015381 600.546631,551.882202 
	C605.416931,551.500244 609.080444,552.963318 612.402039,556.652954 
	C613.982910,558.409119 616.917908,559.773560 619.286987,559.850098 
	C629.772034,560.189148 640.281189,560.188049 650.763611,559.810181 
	C652.545288,559.745911 655.193176,557.565002 655.796204,555.800049 
	C657.691895,550.251953 659.573486,549.129883 665.375732,551.093384 
	C666.794189,551.573486 669.640930,551.731628 669.878113,551.187195 
	C671.790222,546.797058 675.719971,544.735535 678.878540,541.711670 
	C681.118958,539.566895 681.514832,535.460327 685.935059,535.290100 
	C686.423157,535.271240 687.234985,534.460754 687.296265,533.945984 
	C688.103882,527.159058 693.090210,527.843445 697.774414,528.006531 
	C701.116333,528.122925 704.000549,527.469727 703.919006,523.354797 
	C703.843445,519.544495 701.809387,517.811584 697.789795,517.932495 
	C692.419983,518.093994 686.789673,519.129883 682.233154,514.749207 
	C681.532532,514.075684 680.042480,514.095764 678.903381,514.025818 
	C669.545898,513.451782 669.549072,513.468872 670.711548,504.163666 
	C670.734131,503.982788 670.285583,503.743011 669.537292,503.048645 
	C667.657837,505.946350 666.356262,508.594330 667.500244,512.131287 
	C668.295410,514.590088 668.798462,517.626343 665.088989,517.839294 
	C660.567200,518.098816 660.026184,520.460388 660.425537,524.117249 
	C660.515320,524.939331 659.517517,525.880127 659.020386,526.766235 
	C658.248840,526.281189 657.266357,525.956726 656.749695,525.277771 
	C655.664734,523.852112 654.824524,522.240173 653.978516,520.497681 
	C654.321106,520.098389 654.601501,519.991028 655.226196,519.933899 
	C655.670105,518.886353 655.802124,517.873291 655.980774,516.509888 
	C672.914368,482.664429 675.197388,448.633148 659.987427,413.675171 
	C683.171509,397.064301 706.148438,380.730255 729.813049,363.907318 
	C729.975952,367.373444 730.083679,369.666016 730.075867,372.417358 
	C729.970703,419.290924 729.969116,465.705688 729.998535,512.120483 
	C730.007385,526.088440 730.102356,540.056335 730.092651,554.487366 
	C731.260803,576.504822 728.179199,597.203247 717.880859,616.487427 
	C717.670593,616.881104 717.965088,617.544250 718.024109,618.081726 
	C718.024109,618.081726 718.017517,618.007874 717.732056,617.783081 
	C715.974731,620.397888 714.502991,623.237549 713.031128,626.077209 
	C713.031128,626.077209 713.018616,626.007751 712.751099,625.763672 
	C708.488586,630.300720 704.468567,635.061523 700.534668,639.892334 
	C700.113708,640.409302 700.195068,641.335266 700.043457,642.071533 
	C700.043457,642.071533 700.014099,642.000977 699.817200,641.661194 
	C697.745483,643.245605 695.870667,645.169861 693.995850,647.094055 
	C693.995850,647.094055 693.991638,646.988220 693.643372,646.849609 
	C692.870728,647.502686 692.446289,648.294312 692.021851,649.085938 
	C692.021851,649.085938 692.012024,649.015686 691.825562,648.687622 
	C690.435120,649.217407 689.231140,650.075317 688.027100,650.933228 
M385.485748,375.952332 
	C382.359680,377.889069 378.350189,379.145721 376.250671,381.872803 
	C362.471954,399.770020 352.433014,419.375214 349.498505,442.215027 
	C344.852509,478.375793 354.553558,510.366791 376.814240,538.835632 
	C380.221130,543.192688 384.302979,544.023499 388.181305,541.692932 
	C392.149902,539.308105 393.327057,534.935974 390.903900,529.869995 
	C388.900055,525.680725 386.421509,521.718872 384.162170,517.651367 
	C370.157959,492.438965 366.895477,465.486633 371.755798,437.431732 
	C374.742188,420.193542 381.443634,404.352325 391.336517,389.825409 
	C396.042999,382.914337 394.078583,378.182800 385.485748,375.952332 
M661.677979,595.283630 
	C642.054626,595.277954 622.430969,595.211792 602.808044,595.300659 
	C596.284119,595.330200 590.937500,599.958679 590.993164,605.091187 
	C591.058167,611.086121 596.092896,615.590454 603.165710,615.630310 
	C621.627258,615.734375 640.089722,615.754883 658.551514,615.712463 
	C665.035034,615.697571 669.350464,612.451294 670.393372,607.179871 
	C671.363770,602.275208 668.532166,598.122192 661.677979,595.283630 
M317.108032,412.150116 
	C317.094330,390.204193 317.005524,368.257904 317.116852,346.312592 
	C317.146729,340.423401 317.786530,334.537323 318.177063,328.146851 
	C315.710968,326.105621 313.915588,328.290955 313.325836,330.757263 
	C312.333038,334.909393 311.647156,339.243744 311.635468,343.503632 
	C311.569458,367.609467 311.741486,391.715973 311.836609,415.822235 
	C311.841187,416.985046 311.543427,418.308990 311.997131,419.269440 
	C312.555786,420.452087 313.755829,421.331757 314.678680,422.342377 
	C315.689240,421.230255 317.316345,420.239655 317.565155,418.977386 
	C317.933685,417.107635 317.324554,415.045166 317.108032,412.150116 
M509.444061,273.968872 
	C502.651367,275.051575 495.125610,271.486053 488.150848,277.148529 
	C490.143280,278.377747 491.464203,279.882172 492.826080,279.920258 
	C501.275970,280.156525 509.737091,280.155426 518.188354,279.963104 
	C519.239441,279.939178 520.254272,278.321198 521.285889,277.441833 
	C520.314697,276.314392 519.493835,274.444397 518.341614,274.211090 
	C515.788513,273.694153 513.068909,273.999023 509.444061,273.968872 
M411.881897,283.005493 
	C405.328491,282.993042 407.611816,291.245972 402.315552,292.932404 
	C406.389526,293.839630 410.090210,293.977173 413.764648,293.727844 
	C414.533356,293.675690 415.279144,292.249298 415.904785,291.363800 
	C416.877197,289.987579 417.527863,288.323120 418.691406,287.156281 
	C420.761932,285.079865 419.841278,283.825592 417.703064,283.213806 
	C416.155182,282.770874 414.401886,283.045868 411.881897,283.005493 
M629.098083,401.620758 
	C628.932861,402.175537 628.767639,402.730316 628.602417,403.285095 
	C629.156921,403.191254 629.711426,403.097412 630.265930,403.003540 
	C630.047546,402.458099 629.829163,401.912689 629.098083,401.620758 
M458.470093,285.299316 
	C458.101990,284.935577 457.733887,284.571838 457.365814,284.208130 
	C457.088531,284.509918 456.811218,284.811707 456.533905,285.113464 
	C457.041199,285.310211 457.548462,285.506958 458.470093,285.299316 
z"/>
<path fill="#0C1C28" opacity="1.000000" stroke="none" 
	d="
M671.886719,383.411499 
	C669.788025,383.411499 667.689392,383.411499 665.052612,383.411499 
	C665.052612,377.098419 664.889954,371.001251 665.183960,364.926178 
	C665.245911,363.645721 666.910156,362.379883 667.966492,361.226746 
	C669.234863,359.842102 671.896362,358.420105 671.749451,357.304810 
	C671.348267,354.260712 670.248840,351.055115 668.525574,348.527344 
	C667.364136,346.823853 664.673584,346.162811 662.304626,344.831726 
	C660.679016,346.872803 659.107483,348.845978 657.535950,350.819153 
	C656.143188,348.955933 654.795410,347.056335 653.333008,345.249420 
	C652.830444,344.628510 652.041687,344.239258 651.617615,343.401764 
	C654.832336,343.326569 657.809509,343.773010 660.794556,343.834229 
	C708.095886,344.804230 746.527039,300.171021 738.723877,253.377121 
	C732.846680,218.133392 702.304871,189.648376 667.746338,187.179565 
	C630.902893,184.547501 596.985962,207.751480 586.104370,243.055862 
	C585.032043,246.535065 583.362793,250.018005 583.198364,253.556274 
	C582.546143,267.594299 582.469604,281.644470 588.036743,294.988434 
	C585.342407,295.856323 582.648071,296.724213 578.697021,297.996918 
	C578.107971,289.686218 577.455200,281.675171 577.006409,273.652740 
	C576.771240,269.449310 578.020508,264.909393 572.647705,262.577515 
	C571.664673,262.150848 571.117554,259.784851 571.073730,258.293304 
	C570.898254,252.328857 570.618713,246.324463 571.111877,240.395920 
	C571.566589,234.929962 569.718018,231.926895 564.072510,230.499908 
	C563.906189,228.819199 563.936340,227.870743 563.966492,226.922287 
	C563.966492,226.922287 563.979492,226.991791 564.256836,227.290192 
	C565.734009,225.058685 566.933899,222.528763 568.540527,219.995529 
	C573.919006,219.712616 571.404663,215.991913 571.930176,213.298004 
	C572.332214,211.938034 572.671387,210.919754 573.010559,209.901474 
	C573.010559,209.901474 573.018066,210.030396 573.331177,210.083405 
	C574.276733,209.061783 574.909180,207.987167 575.541687,206.912552 
	C575.461548,206.645340 575.350647,206.382126 575.315186,206.109116 
	C575.299133,205.985703 575.433105,205.842789 576.189575,205.113556 
	C576.583374,204.152802 576.286621,203.787186 575.989868,203.421555 
	C576.333130,202.980438 576.676392,202.539322 577.526733,202.460205 
	C578.352234,202.687057 578.670654,202.551880 579.293640,202.222656 
	C581.049133,199.660034 582.499939,197.291443 583.950745,194.922852 
	C583.950745,194.922836 583.987549,194.989090 584.286621,195.375809 
	C585.046814,194.812683 585.507874,193.862839 585.968872,192.912994 
	C585.968872,192.912994 585.983704,192.983215 586.291870,193.359100 
	C587.392517,192.301346 588.184937,190.867722 588.977295,189.434082 
	C588.900513,189.222229 588.962341,189.064590 589.500244,189.427780 
	C591.554138,188.231339 593.270386,186.568314 594.986633,184.905289 
	C594.986633,184.905289 594.989197,184.977631 595.209717,185.297363 
	C595.858826,185.362366 596.316467,185.146103 596.711914,184.847397 
	C642.398865,150.341751 697.537170,154.610016 737.620544,195.723862 
	C738.229797,196.348785 739.255920,196.567200 740.087524,196.975311 
	C740.087524,196.975311 740.017700,196.988022 739.695679,197.203522 
	C740.165955,198.481522 740.937317,199.560425 741.753723,200.604080 
	C768.174988,234.381439 772.057678,277.952637 751.949707,314.460938 
	C745.611084,325.969574 737.899963,336.374207 727.173401,344.118866 
	C708.843323,357.353241 690.325623,370.327820 671.886719,383.411499 
z"/>
<path fill="#0C1D29" opacity="1.000000" stroke="none" 
	d="
M243.765274,816.013062 
	C239.444046,814.803406 236.746674,812.093384 235.900421,806.801880 
	C235.615631,786.266296 235.375397,766.522705 235.258804,746.778442 
	C235.239365,743.486206 235.757614,740.190796 236.027405,736.896851 
	C238.998840,730.958679 243.189697,727.603516 250.449310,727.863220 
	C263.211426,728.319885 276.006836,727.794556 288.776245,728.134094 
	C292.051178,728.221252 295.736145,729.324097 298.445587,731.136780 
	C306.351013,736.425720 303.331848,746.405579 295.329865,749.008423 
	C284.348785,748.944702 274.214966,748.913330 264.082977,749.033142 
	C262.380524,749.053223 260.685822,749.727112 258.987488,750.098816 
	C258.992065,753.784973 258.996643,757.471130 259.332825,761.880066 
	C268.088837,762.734009 276.513184,762.865173 284.937531,762.996338 
	C290.545410,763.161560 293.995667,766.924683 294.343719,771.575745 
	C294.574982,774.665955 291.920685,779.976257 289.374786,780.851624 
	C284.130341,782.654907 278.097870,782.235107 272.379761,782.551392 
	C270.593628,782.650208 268.774872,781.987122 266.972565,781.995605 
	C258.087006,782.037292 259.209656,780.900513 258.897064,789.971741 
	C258.761536,793.905701 259.988342,795.201050 263.966034,795.074158 
	C272.445740,794.803589 280.941315,794.911682 289.428314,795.021423 
	C298.178833,795.134460 303.224670,800.479553 301.519501,807.969849 
	C300.467255,812.592163 297.410858,815.653259 292.088013,816.628540 
	C275.559174,816.244263 259.662231,816.128662 243.765274,816.013062 
z"/>
<path fill="#0B1D29" opacity="1.000000" stroke="none" 
	d="
M744.035767,762.875000 
	C744.035767,764.445007 744.035767,766.015015 744.035767,768.342346 
	C745.815186,767.555420 746.850220,767.394897 747.431763,766.794800 
	C753.439758,760.594971 759.222229,754.169250 765.375183,748.119263 
	C770.848633,742.737427 780.739563,744.689270 784.055847,751.498108 
	C786.167419,755.833496 784.772522,760.978760 780.153687,765.329712 
	C777.042175,768.260742 773.704407,770.954773 770.641968,773.933777 
	C765.395081,779.037598 765.735901,779.767883 770.878967,785.467407 
	C776.270569,791.442444 781.310486,797.769104 786.097351,804.242859 
	C789.069153,808.261902 784.240967,816.584778 779.141113,817.575012 
	C773.258667,818.717285 768.810120,816.587646 765.041687,812.474670 
	C759.712219,806.657776 754.511108,800.723328 748.980957,794.532166 
	C745.857483,796.492310 744.575195,799.585571 745.065552,803.751587 
	C745.789917,809.905518 741.007935,816.996155 733.215881,817.815430 
	C727.022949,818.466614 720.956909,813.534668 720.948181,807.115051 
	C720.912048,780.483765 720.955322,753.852234 721.022827,727.220947 
	C721.034729,722.539307 724.625793,717.092285 728.086304,716.111938 
	C733.066650,714.700928 739.172974,716.920837 742.137512,721.260132 
	C742.785889,722.209106 743.311829,723.241699 743.794434,725.036499 
	C743.808350,738.183105 743.922058,750.529053 744.035767,762.875000 
z"/>
<path fill="#0C1D28" opacity="1.000000" stroke="none" 
	d="
M406.117279,809.744568 
	C405.271423,815.529175 401.056732,817.223816 396.098267,817.759583 
	C391.122406,818.297363 387.500732,816.128662 385.142639,810.955627 
	C384.647888,810.182922 384.281647,810.101501 383.915405,810.020142 
	C383.915405,810.020142 383.985413,810.010803 384.325928,809.686096 
	C384.462769,807.547974 384.085541,805.734985 384.081573,803.921143 
	C384.026337,778.592346 384.002167,753.263489 384.044495,727.934753 
	C384.047760,725.977112 384.605438,724.020386 384.905396,722.063232 
	C387.441833,716.970154 391.494873,715.533447 397.101349,715.885254 
	C403.108978,716.262024 407.664429,721.919678 407.903656,727.808044 
	C408.218140,735.548523 407.980896,743.311401 407.980896,751.949341 
	C417.950470,744.898804 427.828461,745.371521 437.449493,750.298767 
	C446.125946,754.742249 449.995575,762.893921 451.619446,772.668274 
	C451.133514,785.527283 451.030914,797.772278 450.928284,810.017273 
	C449.427704,811.938660 448.264801,814.329102 446.365356,815.696472 
	C439.766571,820.447021 432.697418,817.841736 428.918701,808.780518 
	C428.674408,801.887817 428.590302,795.817322 428.319397,789.755066 
	C428.086670,784.546509 427.640625,779.347534 427.288910,774.144287 
	C426.884583,773.890686 426.357880,773.727478 426.093964,773.370178 
	C420.188873,765.375977 415.423157,765.466248 408.888763,774.078369 
	C408.190796,775.325684 408.104584,776.205688 408.018372,777.085754 
	C408.018341,777.085754 407.980194,776.971436 407.616394,777.103271 
	C407.165955,783.005798 407.162811,788.779297 406.967529,794.546387 
	C406.795868,799.616272 406.409058,804.678772 406.117279,809.744568 
z"/>
<path fill="#0C1C29" opacity="1.000000" stroke="none" 
	d="
M530.371338,797.586365 
	C527.651611,805.702637 521.947571,810.591003 514.783813,814.095337 
	C499.534027,821.555298 481.363495,818.345215 470.205811,806.595886 
	C459.730652,795.565308 457.619659,776.914612 465.947662,763.444458 
	C471.089020,755.128479 477.520966,748.258484 487.192261,745.902527 
	C510.408356,740.246887 531.683289,755.923645 534.078369,777.984863 
	C534.826294,784.874756 534.500916,791.401184 530.371338,797.586365 
M509.040619,789.377258 
	C513.613098,780.888367 508.902283,768.593811 500.503479,767.096497 
	C495.212891,766.153320 488.192139,769.675720 485.539978,774.603760 
	C483.238281,778.880615 484.011383,786.762634 487.093384,790.441284 
	C492.950409,797.432251 500.911530,797.232666 509.040619,789.377258 
z"/>
<path fill="#0C1C28" opacity="1.000000" stroke="none" 
	d="
M673.017212,809.159119 
	C670.491455,811.957764 668.468994,816.142212 665.339539,817.278931 
	C657.822021,820.009583 653.733887,817.212219 651.044678,808.716431 
	C649.761902,809.684998 648.386841,810.293884 647.648438,811.348572 
	C641.560486,820.044250 628.670105,819.379883 620.451660,815.355103 
	C612.063965,811.247375 607.417725,804.474487 608.000549,794.743286 
	C608.606689,784.622559 616.695923,776.978455 626.746399,777.005920 
	C634.162598,777.026184 641.578918,777.009827 649.367981,777.009827 
	C643.202454,767.275330 635.752625,761.837402 626.598083,769.572021 
	C623.222046,772.424500 615.592590,771.432739 613.274841,768.346375 
	C610.511597,764.666687 610.005371,760.481812 612.383545,756.199158 
	C616.496643,748.792603 623.238770,745.781738 631.209167,745.035889 
	C641.790588,744.045654 651.631165,745.931152 660.086609,752.953430 
	C666.822266,758.547302 671.025635,765.600891 672.602844,774.669617 
	C672.510132,777.163513 672.827454,779.098572 672.848083,781.036743 
	C672.948181,790.410400 672.968567,799.784912 673.017212,809.159119 
M634.157166,784.363464 
	C632.934875,785.920837 631.505493,787.359619 630.532043,789.059448 
	C628.287781,792.978333 630.358215,798.183594 634.492310,799.983398 
	C638.802979,801.860046 642.209412,800.796265 645.083862,797.296204 
	C647.874695,793.897888 647.380920,790.317139 644.916016,787.255371 
	C642.407715,784.139587 639.365112,781.244812 634.157166,784.363464 
z"/>
<path fill="#F7F9FA" opacity="1.000000" stroke="none" 
	d="
M671.653076,383.688507 
	C690.325623,370.327820 708.843323,357.353241 727.173401,344.118866 
	C737.899963,336.374207 745.611084,325.969574 751.949707,314.460938 
	C772.057678,277.952637 768.174988,234.381439 741.753723,200.604080 
	C740.937317,199.560425 740.165955,198.481522 739.703247,197.168884 
	C744.014587,201.824997 748.894226,206.261505 751.764893,211.748962 
	C755.949829,219.748703 758.675415,228.510056 762.048767,236.936493 
	C767.804504,251.314240 766.122986,266.155457 765.113098,281.033752 
	C764.116333,295.718262 757.377441,308.248993 750.874451,320.839752 
	C748.149048,326.116669 744.164612,330.743347 740.525757,335.992737 
	C745.132996,339.112488 744.178162,342.700653 742.094604,346.661530 
	C739.214294,352.137085 736.503967,357.716370 734.038147,363.389191 
	C732.905884,365.993927 732.528809,368.926941 731.232422,371.815979 
	C730.655701,371.920868 730.191406,371.958588 730.191406,371.958588 
	C730.083679,369.666016 729.975952,367.373444 729.813049,363.907318 
	C706.148438,380.730255 683.171509,397.064301 659.650269,413.711121 
	C654.057190,417.690186 649.008484,421.356476 643.959778,425.022797 
	C643.663208,424.519470 643.366699,424.016144 642.911926,422.901062 
	C641.226440,418.707550 639.699219,415.125763 638.171997,411.543976 
	C638.008484,410.973267 637.844971,410.402557 637.410400,409.337616 
	C636.228333,407.185028 635.317261,405.526672 634.406250,403.868286 
	C633.227112,401.669922 632.048035,399.471558 630.541138,396.816010 
	C629.791809,395.810699 629.370239,395.262573 628.948669,394.714447 
	C627.371765,391.425415 625.421936,388.254608 624.330505,384.811676 
	C623.376892,381.803955 624.457642,378.294952 627.530518,377.442139 
	C630.578735,376.596161 634.471313,376.586243 637.302368,377.809448 
	C639.922485,378.941528 641.627869,382.190796 644.025208,385.021088 
	C644.794006,386.055878 645.273682,386.577301 645.753357,387.098724 
	C647.475281,389.978027 649.197266,392.857330 651.323364,396.325500 
	C652.575562,396.643829 653.423523,396.373291 654.271545,396.102783 
	C656.119385,394.737061 657.967224,393.371338 659.960632,391.685791 
	C660.106201,391.365906 660.166992,391.397827 660.166992,391.397827 
	C663.917786,388.920380 667.668640,386.442932 671.653076,383.688507 
z"/>
<path fill="#091B27" opacity="1.000000" stroke="none" 
	d="
M600.145752,728.996948 
	C605.936279,729.935608 610.007263,734.263794 609.984558,739.457336 
	C609.961792,744.684692 606.095276,749.268311 600.489014,749.939514 
	C594.936340,750.604370 589.314880,750.694580 583.022888,751.419739 
	C582.251587,769.596985 582.174194,787.391357 582.143616,805.185791 
	C582.142700,805.722839 582.631714,806.260681 582.892273,806.798157 
	C582.458923,811.144775 578.265442,816.838928 574.799316,817.428528 
	C567.480530,818.673706 562.627380,816.914490 560.084839,810.245789 
	C560.083069,791.657654 560.066772,773.901855 559.956665,756.146729 
	C559.946106,754.447205 559.350525,752.751282 559.026489,751.053711 
	C557.151062,750.928589 555.265625,750.886475 553.402039,750.662720 
	C547.901428,750.002197 542.242310,749.866943 536.963440,748.389282 
	C532.151733,747.042297 530.444763,738.213867 533.786987,733.888245 
	C535.253479,731.990295 537.434509,730.644409 540.112244,729.037964 
	C560.670837,729.017700 580.408325,729.007324 600.145752,728.996948 
z"/>
<path fill="#0C1E2B" opacity="1.000000" stroke="none" 
	d="
M355.448730,770.672852 
	C348.086151,764.819885 344.611969,764.907166 338.891663,769.551819 
	C330.916260,776.027527 331.305847,784.860718 334.992279,789.645203 
	C340.446686,796.724304 347.374298,798.031494 354.477997,792.922424 
	C360.154510,788.839905 366.256042,789.013184 371.039581,793.712830 
	C374.180145,796.798218 373.117035,803.483093 369.346497,808.238220 
	C361.755005,817.812134 342.338623,820.037598 329.593201,814.708984 
	C306.219208,804.936707 302.278839,771.384094 320.496216,754.859131 
	C332.489014,743.980347 351.468719,741.177734 363.984924,750.034546 
	C366.908325,752.103271 369.740784,754.740906 371.616760,757.741028 
	C374.112061,761.731567 373.493042,766.081360 370.015656,769.568542 
	C367.084991,772.507446 359.914276,773.070557 355.448730,770.672852 
z"/>
<path fill="#0B1A26" opacity="1.000000" stroke="none" 
	d="
M685.991943,724.794434 
	C686.815613,719.588135 689.778931,716.184021 693.678101,715.964783 
	C700.731201,715.568176 706.675598,718.860046 708.009644,723.901123 
	C708.305420,725.018616 708.601990,726.135925 708.551147,727.822144 
	C708.112122,729.376343 707.939636,730.361816 707.939880,731.347229 
	C707.946655,756.587341 707.971497,781.827515 707.993164,807.067627 
	C707.235291,809.633606 707.172424,812.805725 705.573914,814.638672 
	C702.301392,818.391235 697.548218,818.893555 692.884949,817.543823 
	C688.660339,816.321106 686.110291,813.422424 686.011475,807.928650 
	C686.011658,779.645813 686.001770,752.220154 685.991943,724.794434 
z"/>
<path fill="#DEE3E6" opacity="1.000000" stroke="none" 
	d="
M358.999664,258.060425 
	C339.071442,265.097717 323.262634,277.605042 311.050934,294.673676 
	C299.010315,311.503235 292.812866,330.178650 292.866791,351.094482 
	C293.054871,424.015961 292.889526,496.938293 293.023407,569.859985 
	C293.035217,576.298584 294.246063,582.734863 294.626709,589.605530 
	C294.181458,590.044983 294.009521,590.051086 293.837585,590.057251 
	C292.873230,585.446533 291.080383,580.837952 291.068695,576.224854 
	C290.890442,505.949768 290.903625,435.674011 290.989960,365.398590 
	C291.002960,354.825958 290.568695,344.083618 292.260223,333.733368 
	C293.733368,324.719360 296.805542,315.539734 301.186737,307.536743 
	C306.577515,297.689728 313.302368,288.302826 320.838745,279.972961 
	C329.196320,270.735474 339.967834,264.339996 351.308594,258.778687 
	C363.667999,252.717896 376.407318,250.307983 390.635986,251.055176 
	C391.557495,251.380859 391.788879,251.619095 391.591736,251.950623 
	C380.125854,252.359253 369.307800,253.846802 358.999664,258.060425 
z"/>
<path fill="#FAFBFC" opacity="1.000000" stroke="none" 
	d="
M392.020294,251.857346 
	C391.788879,251.619095 391.557495,251.380859 391.094788,251.046051 
	C395.618225,250.297440 400.371429,249.092239 405.128021,249.078720 
	C454.049011,248.939590 502.970612,249.010544 551.891907,248.935333 
	C554.015625,248.932068 556.138000,248.079620 558.657349,248.041550 
	C558.605042,249.571960 558.156433,250.683548 556.912231,251.840775 
	C553.410950,251.939865 550.705322,251.993332 547.999634,252.046783 
	C542.306519,251.989746 536.613403,251.932739 529.999634,251.876160 
	C497.052216,251.955505 465.025543,252.034439 432.536743,252.031113 
	C425.383606,252.007217 418.692596,252.065582 411.549988,252.038849 
	C404.739075,251.921616 398.379669,251.889481 392.020294,251.857346 
z"/>
<path fill="#F7F9FA" opacity="1.000000" stroke="none" 
	d="
M740.049011,196.597595 
	C739.255920,196.567200 738.229797,196.348785 737.620544,195.723862 
	C697.537170,154.610016 642.398865,150.341751 596.711914,184.847397 
	C596.316467,185.146103 595.858826,185.362366 595.173828,185.292679 
	C596.929871,182.977921 598.639771,180.467773 601.008301,179.089050 
	C610.258423,173.704300 619.172119,167.923950 629.704773,164.650116 
	C638.161926,162.021393 646.441162,160.734512 655.058960,161.054413 
	C666.048706,161.462387 677.188416,161.388550 687.944824,163.307877 
	C695.413879,164.640640 702.617676,168.474976 709.441895,172.123352 
	C716.361938,175.822998 722.920837,180.340561 729.156616,185.126923 
	C733.219177,188.245270 736.422302,192.483398 740.049011,196.597595 
z"/>
<path fill="#F5F8FA" opacity="1.000000" stroke="none" 
	d="
M540.975464,669.277954 
	C541.747498,669.382751 542.519470,669.487549 544.105835,669.572693 
	C574.315857,669.568359 603.711548,669.591736 633.107300,669.577515 
	C634.746948,669.576721 636.386536,669.265381 638.026123,669.098572 
	C640.851868,668.797241 643.677673,668.495911 646.840820,668.615356 
	C647.116150,669.311157 647.054016,669.586182 646.991882,669.861145 
	C607.777466,670.239197 568.563721,670.815186 529.348450,670.945740 
	C479.032410,671.113342 428.715149,670.922913 378.185333,670.245117 
	C377.976318,669.423462 377.980408,669.243408 377.984467,669.063293 
	C380.004608,669.189026 382.024719,669.314758 384.851562,669.505005 
	C419.780731,669.564514 453.903168,669.565674 488.025635,669.540833 
	C490.342590,669.539124 492.659424,669.342041 494.976318,669.235840 
	C497.374237,669.334839 499.772125,669.433899 503.043304,669.511658 
	C508.602814,669.408203 513.289062,669.325989 517.975281,669.243774 
	C520.044434,669.353760 522.113647,669.463745 525.050049,669.553284 
	C530.936646,669.447815 535.956055,669.362915 540.975464,669.277954 
z"/>
<path fill="#C7D1DA" opacity="1.000000" stroke="none" 
	d="
M730.075867,372.417358 
	C730.191406,371.958588 730.655701,371.920868 730.878540,371.988464 
	C731.071838,430.741821 731.042480,489.427612 731.012573,548.113403 
	C731.011719,549.775879 731.005920,551.438354 730.746399,553.566772 
	C730.490356,554.032715 730.157898,554.024292 730.157837,554.024292 
	C730.102356,540.056335 730.007385,526.088440 729.998535,512.120483 
	C729.969116,465.705688 729.970703,419.290924 730.075867,372.417358 
z"/>
<path fill="#E8EDEE" opacity="1.000000" stroke="none" 
	d="
M730.092651,554.487366 
	C730.157898,554.024292 730.490356,554.032715 730.656616,554.029419 
	C730.670044,567.132751 732.617615,580.404785 728.922363,593.252441 
	C726.914490,600.233276 723.757812,606.887024 721.051819,613.661316 
	C720.447327,615.174683 719.559937,616.575134 718.413452,618.054688 
	C717.965088,617.544250 717.670593,616.881104 717.880859,616.487427 
	C728.179199,597.203247 731.260803,576.504822 730.092651,554.487366 
z"/>
<path fill="#C7D1DA" opacity="1.000000" stroke="none" 
	d="
M384.464386,722.023193 
	C384.605438,724.020386 384.047760,725.977112 384.044495,727.934753 
	C384.002167,753.263489 384.026337,778.592346 384.081573,803.921143 
	C384.085541,805.734985 384.462769,807.547974 384.312439,809.718750 
	C383.616577,808.935120 382.978516,807.794739 382.976227,806.653137 
	C382.921661,779.372253 382.924408,752.091248 382.982269,724.810425 
	C382.984253,723.867249 383.661072,722.925537 384.464386,722.023193 
z"/>
<path fill="#E8EDEE" opacity="1.000000" stroke="none" 
	d="
M377.676819,668.928589 
	C377.980408,669.243408 377.976318,669.423462 377.956085,669.873169 
	C363.397888,668.713989 349.773651,664.739075 337.935730,655.348083 
	C347.503235,658.801453 357.044708,662.782288 366.722504,666.398438 
	C370.098389,667.659912 373.810547,668.021423 377.676819,668.928589 
z"/>
<path fill="#303942" opacity="1.000000" stroke="none" 
	d="
M685.614502,725.039062 
	C686.001770,752.220154 686.011658,779.645813 686.010742,807.541138 
	C685.649109,806.816101 684.995300,805.622314 684.991882,804.426636 
	C684.917480,778.525452 684.913696,752.623962 684.913635,726.722595 
	C684.913635,726.242981 685.124573,725.763367 685.614502,725.039062 
z"/>
<path fill="#70797E" opacity="1.000000" stroke="none" 
	d="
M708.395142,806.879517 
	C707.971497,781.827515 707.946655,756.587341 707.939880,731.347229 
	C707.939636,730.361816 708.112122,729.376343 708.595337,728.198486 
	C708.923340,754.234497 708.860168,780.462891 708.395142,806.879517 
z"/>
<path fill="#F7F9FA" opacity="1.000000" stroke="none" 
	d="
M235.637329,737.048950 
	C235.757614,740.190796 235.239365,743.486206 235.258804,746.778442 
	C235.375397,766.522705 235.615631,786.266296 235.873489,806.425415 
	C235.284470,806.059265 234.074097,805.280518 234.070328,804.496033 
	C233.967758,783.069580 233.971283,761.642456 234.041733,740.215759 
	C234.045044,739.209473 234.827606,738.205872 235.637329,737.048950 
z"/>
<path fill="#F7F9FA" opacity="1.000000" stroke="none" 
	d="
M451.328796,809.899170 
	C451.030914,797.772278 451.133514,785.527283 451.627014,773.056213 
	C452.349304,774.164673 452.954590,775.496460 452.967682,776.834106 
	C453.053772,785.617981 453.095734,794.404541 452.953461,803.186951 
	C452.917786,805.390991 452.156891,807.583374 451.328796,809.899170 
z"/>
<path fill="#E8EDEE" opacity="1.000000" stroke="none" 
	d="
M647.392700,669.942322 
	C647.054016,669.586182 647.116150,669.311157 647.324768,668.639526 
	C657.400146,664.808105 667.329102,661.373352 677.638489,657.967163 
	C673.445129,660.640930 669.097961,663.862549 664.235962,665.774841 
	C659.006958,667.831360 653.294861,668.659424 647.392700,669.942322 
z"/>
<path fill="#F6F7F8" opacity="1.000000" stroke="none" 
	d="
M427.237000,774.601562 
	C427.640625,779.347534 428.086670,784.546509 428.319397,789.755066 
	C428.590302,795.817322 428.674408,801.887817 428.900299,808.413696 
	C428.302002,807.727539 427.081604,806.587158 427.071991,805.436646 
	C426.987244,795.311768 427.118073,785.184998 427.237000,774.601562 
z"/>
<path fill="#E8EDEE" opacity="1.000000" stroke="none" 
	d="
M293.897888,590.480591 
	C294.009521,590.051086 294.181458,590.044983 294.611084,590.023560 
	C299.139740,600.868958 303.410736,611.729675 307.321045,622.835083 
	C304.395020,618.628113 301.256989,614.400269 299.408112,609.668579 
	C297.047211,603.626343 295.726990,597.177490 293.897888,590.480591 
z"/>
<path fill="#303942" opacity="1.000000" stroke="none" 
	d="
M599.883545,728.645386 
	C580.408325,729.007324 560.670837,729.017700 540.464417,729.013977 
	C540.686340,728.655945 541.378113,728.009888 542.068054,728.011841 
	C561.252563,728.065674 580.437012,728.185120 599.883545,728.645386 
z"/>
<path fill="#70797E" opacity="1.000000" stroke="none" 
	d="
M559.008423,751.518250 
	C559.350525,752.751282 559.946106,754.447205 559.956665,756.146729 
	C560.066772,773.901855 560.083069,791.657654 560.075989,809.912720 
	C559.501648,809.447754 558.515320,808.481079 558.519897,807.519165 
	C558.607239,789.006714 558.810791,770.494812 559.008423,751.518250 
z"/>
<path fill="#C4CDD8" opacity="1.000000" stroke="none" 
	d="
M582.908447,806.342529 
	C582.631714,806.260681 582.142700,805.722839 582.143616,805.185791 
	C582.174194,787.391357 582.251587,769.596985 582.543457,751.466064 
	C582.817993,769.381958 582.871277,787.634399 582.908447,806.342529 
z"/>
<path fill="#303942" opacity="1.000000" stroke="none" 
	d="
M244.051392,816.356140 
	C259.662231,816.128662 275.559174,816.244263 291.732544,816.677490 
	C276.118469,816.896545 260.227997,816.797913 244.051392,816.356140 
z"/>
<path fill="#E8EDEE" opacity="1.000000" stroke="none" 
	d="
M311.934448,630.375610 
	C314.697540,632.997681 317.470459,636.007874 320.281311,638.982239 
	C322.675964,641.516174 325.114288,644.008789 327.255829,646.802246 
	C324.382172,644.968384 321.481537,643.126038 319.267334,640.665894 
	C316.533508,637.628479 314.370422,634.077271 311.934448,630.375610 
z"/>
<path fill="#FAFBFC" opacity="1.000000" stroke="none" 
	d="
M563.573364,226.959717 
	C563.936340,227.870743 563.906189,228.819199 563.839844,230.178619 
	C563.501282,231.166122 563.198914,231.742676 562.707520,232.822083 
	C562.507874,233.492477 562.497192,233.660019 562.486572,233.827545 
	C561.353394,238.122131 560.220154,242.416718 559.066650,247.134888 
	C555.471802,248.456131 556.962952,245.652023 557.242859,244.626984 
	C558.658142,239.444839 560.339478,234.334381 561.982483,229.216431 
	C562.235107,228.429596 562.773926,227.734619 563.573364,226.959717 
z"/>
<path fill="#E8EDEE" opacity="1.000000" stroke="none" 
	d="
M700.403931,642.053894 
	C700.195068,641.335266 700.113708,640.409302 700.534668,639.892334 
	C704.468567,635.061523 708.488586,630.300720 712.786255,625.766357 
	C711.743103,628.297302 710.631470,630.767700 708.997559,632.822876 
	C706.438660,636.041504 703.526794,638.979431 700.403931,642.053894 
z"/>
<path fill="#DEE3E6" opacity="1.000000" stroke="none" 
	d="
M744.439819,762.719849 
	C743.922058,750.529053 743.808350,738.183105 743.839111,725.382751 
	C744.338257,725.889709 745.000305,726.851013 745.000671,727.812561 
	C745.005127,739.396606 744.911743,750.980713 744.439819,762.719849 
z"/>
<path fill="#FAFBFC" opacity="1.000000" stroke="none" 
	d="
M572.632568,209.946381 
	C572.671387,210.919754 572.332214,211.938034 571.628174,213.479584 
	C570.220093,216.001526 569.176941,218.000198 568.133789,219.998871 
	C566.933899,222.528763 565.734009,225.058685 564.221680,227.286026 
	C566.691101,221.319412 569.472900,215.655365 572.632568,209.946381 
z"/>
<path fill="#303942" opacity="1.000000" stroke="none" 
	d="
M259.457336,750.083679 
	C260.685822,749.727112 262.380524,749.053223 264.082977,749.033142 
	C274.214966,748.913330 284.348785,748.944702 294.992615,748.976685 
	C293.968323,749.382263 292.435822,750.030518 290.898132,750.043091 
	C280.575104,750.127075 270.250916,750.075867 259.457336,750.083679 
z"/>
<path fill="#FEFEFE" opacity="1.000000" stroke="none" 
	d="
M673.403931,808.936340 
	C672.968567,799.784912 672.948181,790.410400 672.848083,781.036743 
	C672.827454,779.098572 672.510132,777.163513 672.671997,775.037476 
	C673.342285,775.519592 673.956116,776.191650 673.955566,776.863098 
	C673.947144,787.479980 673.859863,798.096741 673.403931,808.936340 
z"/>
<path fill="#DEE3E6" opacity="1.000000" stroke="none" 
	d="
M406.545898,809.827148 
	C406.409058,804.678772 406.795868,799.616272 406.967529,794.546387 
	C407.162811,788.779297 407.165955,783.005798 407.672363,777.080994 
	C408.062469,786.504395 408.074371,796.082397 407.957855,805.658813 
	C407.940582,807.079590 407.317413,808.492981 406.545898,809.827148 
z"/>
<path fill="#303942" opacity="1.000000" stroke="none" 
	d="
M284.680420,762.668823 
	C276.513184,762.865173 268.088837,762.734009 259.348907,762.344238 
	C267.496674,762.170837 275.959991,762.256104 284.680420,762.668823 
z"/>
<path fill="#E8EDEE" opacity="1.000000" stroke="none" 
	d="
M713.404663,626.055847 
	C714.502991,623.237549 715.974731,620.397888 717.769104,617.781860 
	C716.653870,620.681885 715.216003,623.358154 713.404663,626.055847 
z"/>
<path fill="#E8EDEE" opacity="1.000000" stroke="none" 
	d="
M329.021912,649.371338 
	C331.959351,650.822266 334.997803,652.603577 338.045044,654.741272 
	C335.076843,653.299011 332.099884,651.500366 329.021912,649.371338 
z"/>
<path fill="#E8EDEE" opacity="1.000000" stroke="none" 
	d="
M694.364441,647.064941 
	C695.870667,645.169861 697.745483,643.245605 699.848267,641.683472 
	C698.295166,643.708984 696.514099,645.372375 694.364441,647.064941 
z"/>
<path fill="#F7F9FA" opacity="1.000000" stroke="none" 
	d="
M583.633911,195.029129 
	C582.499939,197.291443 581.049133,199.660034 579.287842,201.839874 
	C578.970947,201.396194 578.964478,201.141251 578.958069,200.886322 
	C580.411072,198.969345 581.864136,197.052368 583.633911,195.029129 
z"/>
<path fill="#E8EDEE" opacity="1.000000" stroke="none" 
	d="
M306.937866,623.390747 
	C308.496796,624.873779 310.082062,626.729431 311.314026,628.828857 
	C309.628510,627.302856 308.296356,625.533142 306.937866,623.390747 
z"/>
<path fill="#F7F9FA" opacity="1.000000" stroke="none" 
	d="
M594.615234,184.947021 
	C593.270386,186.568314 591.554138,188.231339 589.638733,189.433899 
	C591.041016,187.645203 592.642395,186.316986 594.615234,184.947021 
z"/>
<path fill="#F7F9FA" opacity="1.000000" stroke="none" 
	d="
M588.709229,189.691833 
	C588.184937,190.867722 587.392517,192.301346 586.256836,193.351608 
	C586.756042,191.962006 587.598572,190.955795 588.709229,189.691833 
z"/>
<path fill="#E8EDEE" opacity="1.000000" stroke="none" 
	d="
M688.386108,650.977661 
	C689.231140,650.075317 690.435120,649.217407 691.858765,648.700195 
	C690.967285,649.701294 689.856201,650.361694 688.386108,650.977661 
z"/>
<path fill="#FAFBFC" opacity="1.000000" stroke="none" 
	d="
M575.220703,206.525833 
	C574.909180,207.987167 574.276733,209.061783 573.266968,210.090942 
	C573.559753,208.743347 574.229736,207.441223 575.220703,206.525833 
z"/>
<path fill="#E8EDEE" opacity="1.000000" stroke="none" 
	d="
M326.935669,647.374146 
	C327.813721,647.476318 328.718658,647.942871 329.299225,648.747314 
	C328.304077,648.636292 327.633301,648.187378 326.935669,647.374146 
z"/>
<path fill="#F7F9FA" opacity="1.000000" stroke="none" 
	d="
M585.612610,192.949890 
	C585.507874,193.862839 585.046814,194.812683 584.250610,195.364105 
	C584.362427,194.306046 584.809387,193.646423 585.612610,192.949890 
z"/>
<path fill="#E8EDEE" opacity="1.000000" stroke="none" 
	d="
M692.388184,649.061401 
	C692.446289,648.294312 692.870728,647.502686 693.696167,646.845825 
	C693.649658,647.666077 693.202087,648.351501 692.388184,649.061401 
z"/>
<path fill="#DEE3E6" opacity="1.000000" stroke="none" 
	d="
M408.364716,776.977173 
	C408.104584,776.205688 408.190796,775.325684 408.588531,774.244019 
	C408.837036,774.984436 408.774048,775.926453 408.364716,776.977173 
z"/>
<path fill="#FAFBFC" opacity="1.000000" stroke="none" 
	d="
M578.658691,200.997498 
	C578.964478,201.141251 578.970947,201.396194 578.983154,202.033920 
	C578.670654,202.551880 578.352234,202.687057 577.732788,202.399658 
	C577.740906,201.687622 578.050110,201.398163 578.658691,200.997498 
z"/>
<path fill="#C7D1DA" opacity="1.000000" stroke="none" 
	d="
M383.957123,810.310303 
	C384.281647,810.101501 384.647888,810.182922 385.011475,810.637939 
	C384.672180,810.874573 384.335510,810.737610 383.957123,810.310303 
z"/>
<path fill="#FAFBFC" opacity="1.000000" stroke="none" 
	d="
M575.730835,203.720779 
	C576.286621,203.787186 576.583374,204.152802 576.398438,205.035095 
	C575.768494,205.041168 575.620117,204.530579 575.730835,203.720779 
z"/>
<path fill="#E8EDEE" opacity="1.000000" stroke="none" 
	d="
M310.967468,629.286865 
	C311.356995,629.081970 311.812683,629.161194 312.145172,629.672607 
	C311.692505,629.926880 311.363037,629.748962 310.967468,629.286865 
z"/>
<path fill="#FEFEFE" opacity="1.000000" stroke="none" 
	d="
M476.966736,569.172241 
	C475.795746,570.075439 474.592712,570.940247 473.458618,571.887573 
	C447.429352,593.630798 419.088104,611.211060 386.096283,620.412598 
	C384.843475,620.762024 383.529907,620.893433 381.594482,621.244263 
	C382.238251,620.076233 382.485321,619.372375 382.937500,618.844055 
	C404.048767,594.177856 416.175232,565.766602 418.875153,533.339172 
	C419.184387,529.625427 418.372162,526.766296 416.228119,523.700073 
	C368.319305,455.186340 408.932709,367.487579 483.415833,349.647675 
	C507.804535,343.806213 531.731628,346.620667 554.790222,358.091797 
	C555.627991,359.266449 556.120178,359.961731 556.782227,360.400726 
	C574.746887,372.311676 585.270813,389.579987 592.706299,409.308411 
	C598.126648,423.690216 599.094360,438.591248 597.799866,453.487701 
	C596.789734,465.111420 595.065491,477.064636 591.153564,487.973053 
	C578.101257,524.369263 538.561462,555.753540 496.311371,554.052429 
	C494.743805,553.989319 492.681030,554.141785 491.642456,555.075928 
	C486.601898,559.609436 481.832306,564.444214 476.966736,569.172241 
M570.947815,489.626007 
	C584.569946,484.734833 591.677551,474.798615 591.026001,461.557068 
	C590.486755,450.596985 580.893127,439.395264 569.164062,436.520477 
	C560.947693,434.506622 553.325256,435.980927 546.825134,441.744965 
	C536.642090,450.774780 533.962769,463.686523 539.778442,475.633026 
	C545.341797,487.061157 556.656494,492.339813 570.947815,489.626007 
M433.388550,446.970947 
	C432.187042,449.511810 430.730652,451.965393 429.825348,454.607758 
	C423.921661,471.839172 437.408844,491.187378 455.016876,490.871826 
	C467.425659,490.649414 479.299835,480.822388 481.804626,468.702393 
	C484.209473,457.065948 477.239471,444.020813 465.620514,438.411926 
	C453.919891,432.763672 442.506683,435.625916 433.388550,446.970947 
M520.158630,491.564636 
	C513.613525,501.948517 506.996582,502.283264 499.206818,492.629089 
	C498.582184,491.854889 498.072449,490.749451 497.256256,490.414459 
	C495.087372,489.524170 492.361328,487.893433 490.636292,488.563568 
	C488.590454,489.358337 486.463989,492.067535 486.012634,494.281403 
	C485.504150,496.775635 486.165070,500.019379 487.461884,502.280792 
	C492.674316,511.370270 501.117065,515.365112 511.268555,514.638123 
	C520.961182,513.943909 528.680603,509.250488 532.744385,499.984100 
	C534.558777,495.846893 533.242859,492.053589 529.620056,489.426331 
	C526.268127,486.995544 523.087219,487.449768 520.158630,491.564636 
z"/>
<path fill="#FDFDFE" opacity="1.000000" stroke="none" 
	d="
M588.289978,295.230865 
	C582.469604,281.644470 582.546143,267.594299 583.198364,253.556274 
	C583.362793,250.018005 585.032043,246.535065 586.104370,243.055862 
	C596.985962,207.751480 630.902893,184.547501 667.746338,187.179565 
	C702.304871,189.648376 732.846680,218.133392 738.723877,253.377121 
	C746.527039,300.171021 708.095886,344.804230 660.794556,343.834229 
	C657.809509,343.773010 654.832336,343.326569 651.424561,343.114746 
	C650.834656,343.106049 650.671692,343.041962 649.909424,342.901062 
	C647.872864,342.593964 646.435608,342.363708 644.998413,342.133484 
	C644.580688,341.994293 644.162964,341.855133 643.219360,341.532837 
	C642.128418,341.280304 641.563416,341.210846 640.998413,341.141418 
	C640.300171,341.050598 639.601990,340.959778 638.440613,340.619812 
	C637.653442,340.275848 637.329407,340.181061 637.005371,340.086243 
	C629.783997,335.615570 623.914062,340.832123 617.742432,342.993530 
	C612.011108,345.000702 606.544067,347.762360 600.144592,350.546875 
	C600.144592,339.654266 600.346863,329.589661 600.016846,319.542542 
	C599.922424,316.667328 598.628479,313.668823 597.286072,311.031494 
	C594.589844,305.734467 591.481445,300.647156 588.289978,295.230865 
M706.684143,257.054779 
	C701.038818,247.510574 692.106873,243.807556 683.196594,247.317368 
	C675.011597,250.541473 669.806519,259.870514 671.489014,268.300781 
	C673.660217,279.179749 684.237305,285.819427 694.772888,282.916962 
	C706.101196,279.796112 711.147339,269.407349 706.684143,257.054779 
M633.364502,246.349548 
	C631.720154,246.564835 630.041626,246.636627 628.437073,247.018982 
	C618.782227,249.319626 612.470703,260.220123 615.087463,269.970490 
	C617.685486,279.650696 628.057983,285.671204 637.612122,283.044464 
	C646.064819,280.720581 651.829407,273.346985 651.584045,265.172821 
	C651.293030,255.477203 644.604431,248.299683 633.364502,246.349548 
z"/>
<path fill="#C7D1DA" opacity="1.000000" stroke="none" 
	d="
M477.228516,569.433411 
	C481.832306,564.444214 486.601898,559.609436 491.642456,555.075928 
	C492.681030,554.141785 494.743805,553.989319 496.311371,554.052429 
	C538.561462,555.753540 578.101257,524.369263 591.153564,487.973053 
	C595.065491,477.064636 596.789734,465.111420 597.799866,453.487701 
	C599.094360,438.591248 598.126648,423.690216 592.706299,409.308411 
	C585.270813,389.579987 574.746887,372.311676 556.782227,360.400726 
	C556.120178,359.961731 555.627991,359.266449 555.026367,358.349457 
	C568.206299,362.737946 578.891846,371.286865 588.907898,380.738892 
	C592.866882,384.474915 596.321655,388.745148 600.397949,393.293732 
	C602.814026,396.669006 604.838135,399.522705 606.862244,402.376404 
	C611.160950,413.021790 615.459656,423.667206 619.895630,435.014954 
	C620.474670,437.770050 620.916443,439.822815 621.358276,441.875549 
	C621.665283,443.204224 621.972351,444.532898 622.748962,445.908447 
	C623.218506,445.955353 623.153442,446.106445 623.153442,446.106445 
	C622.923096,447.540405 622.692688,448.974365 622.601685,451.134460 
	C622.877258,453.574585 623.013489,455.288513 623.149719,457.002472 
	C623.103271,458.718353 623.056763,460.434235 622.998169,463.012085 
	C622.561951,477.240295 619.752197,490.223480 614.736328,502.481110 
	C610.015747,514.016846 603.159180,524.507751 594.849182,533.928833 
	C583.336914,546.139343 570.107361,555.932739 554.843262,563.046448 
	C529.831299,574.703125 504.012207,576.065063 477.228516,569.433411 
z"/>
<path fill="#0C1C28" opacity="1.000000" stroke="none" 
	d="
M595.127563,534.147827 
	C603.159180,524.507751 610.015747,514.016846 614.736328,502.481110 
	C619.752197,490.223480 622.561951,477.240295 623.071411,463.435669 
	C625.763489,462.743256 627.262451,463.588654 627.017517,466.545868 
	C626.671814,470.720734 627.794556,472.320709 632.729126,471.493011 
	C637.889221,470.627502 642.293945,469.731812 644.988831,464.736298 
	C645.478394,463.828857 647.172729,463.571442 648.782104,463.416687 
	C649.146667,465.213318 649.040100,466.607239 648.564392,468.013214 
	C643.771057,469.998932 646.803406,471.016663 648.759766,472.616638 
	C646.780273,487.082428 643.283142,500.634766 635.712769,513.059509 
	C634.259460,515.438721 633.156189,517.759033 632.025879,520.050659 
	C631.998718,520.021973 632.074768,520.043274 631.697144,520.082275 
	C630.574280,521.819580 629.828979,523.517944 629.025146,525.554871 
	C627.047302,529.569885 625.127930,533.246399 622.835632,537.006714 
	C622.466003,539.583069 622.189880,542.129211 622.651550,544.533752 
	C622.781372,545.209961 625.486755,546.200317 626.284912,545.752625 
	C627.524414,545.057434 628.141907,543.253174 629.402954,541.948669 
	C635.265564,543.730408 639.353149,541.756714 642.678040,537.348267 
	C644.634155,534.754761 646.845581,532.353821 649.171753,530.143921 
	C651.415466,531.130127 653.429688,531.838745 655.567444,532.590820 
	C655.453247,528.028870 655.453247,528.028870 651.046509,526.641968 
	C651.931030,524.422180 652.907410,522.563477 653.883789,520.704773 
	C654.824524,522.240173 655.664734,523.852112 656.749695,525.277771 
	C657.266357,525.956726 658.248840,526.281189 659.020386,526.766235 
	C659.517517,525.880127 660.515320,524.939331 660.425537,524.117249 
	C660.026184,520.460388 660.567200,518.098816 665.088989,517.839294 
	C668.798462,517.626343 668.295410,514.590088 667.500244,512.131287 
	C666.356262,508.594330 667.657837,505.946350 669.537292,503.048645 
	C670.285583,503.743011 670.734131,503.982788 670.711548,504.163666 
	C669.549072,513.468872 669.545898,513.451782 678.903381,514.025818 
	C680.042480,514.095764 681.532532,514.075684 682.233154,514.749207 
	C686.789673,519.129883 692.419983,518.093994 697.789795,517.932495 
	C701.809387,517.811584 703.843445,519.544495 703.919006,523.354797 
	C704.000549,527.469727 701.116333,528.122925 697.774414,528.006531 
	C693.090210,527.843445 688.103882,527.159058 687.296265,533.945984 
	C687.234985,534.460754 686.423157,535.271240 685.935059,535.290100 
	C681.514832,535.460327 681.118958,539.566895 678.878540,541.711670 
	C675.719971,544.735535 671.790222,546.797058 669.878113,551.187195 
	C669.640930,551.731628 666.794189,551.573486 665.375732,551.093384 
	C659.573486,549.129883 657.691895,550.251953 655.796204,555.800049 
	C655.193176,557.565002 652.545288,559.745911 650.763611,559.810181 
	C640.281189,560.188049 629.772034,560.189148 619.286987,559.850098 
	C616.917908,559.773560 613.982910,558.409119 612.402039,556.652954 
	C609.080444,552.963318 605.416931,551.500244 600.546631,551.882202 
	C598.848755,552.015381 597.044556,550.791565 595.288879,550.187439 
	C595.884216,548.579590 596.407715,546.939758 597.102600,545.376160 
	C597.501770,544.477905 598.054565,543.575989 598.752380,542.895264 
	C601.500488,540.213989 601.710693,538.255615 597.546204,536.882629 
	C596.653442,536.588257 596.110229,535.233215 595.127563,534.147827 
M604.649597,529.404053 
	C601.847839,532.294128 602.391846,535.001221 605.232422,538.555725 
	C607.034668,535.900208 608.445007,533.822205 609.855347,531.744141 
	C608.373352,530.949890 606.891296,530.155640 604.649597,529.404053 
z"/>
<path fill="#FAFBFC" opacity="1.000000" stroke="none" 
	d="
M385.884186,375.979553 
	C394.078583,378.182800 396.042999,382.914337 391.336517,389.825409 
	C381.443634,404.352325 374.742188,420.193542 371.755798,437.431732 
	C366.895477,465.486633 370.157959,492.438965 384.162170,517.651367 
	C386.421509,521.718872 388.900055,525.680725 390.903900,529.869995 
	C393.327057,534.935974 392.149902,539.308105 388.181305,541.692932 
	C384.302979,544.023499 380.221130,543.192688 376.814240,538.835632 
	C354.553558,510.366791 344.852509,478.375793 349.498505,442.215027 
	C352.433014,419.375214 362.471954,399.770020 376.250671,381.872803 
	C378.350189,379.145721 382.359680,377.889069 385.884186,375.979553 
z"/>
<path fill="#0B1C28" opacity="1.000000" stroke="none" 
	d="
M432.998840,252.113373 
	C465.025543,252.034439 497.052216,251.955505 529.539673,251.968613 
	C530.320801,255.191788 532.160278,255.977951 535.135559,256.115814 
	C537.733521,256.236206 541.947693,253.946213 542.042725,259.650726 
	C542.126526,264.673737 538.991272,269.394714 534.738525,269.975525 
	C531.183533,270.461060 527.625183,270.921936 523.505859,271.468353 
	C524.034973,264.727295 518.992310,265.903259 514.757874,266.024933 
	C505.525238,266.290192 496.220154,266.097717 487.096100,267.270264 
	C481.982605,267.927429 477.171509,270.937195 471.648193,273.215332 
	C470.131012,273.583649 469.189789,273.623535 468.248566,273.663422 
	C467.263245,272.843964 466.277954,272.024475 465.292633,271.205017 
	C464.640381,272.254272 463.769592,273.230072 463.386536,274.369781 
	C462.794891,276.130035 462.536865,278.002411 462.137360,279.827240 
	C461.603821,279.734741 461.070282,279.642242 460.536713,279.549774 
	C460.355835,278.344604 460.290375,277.107239 459.965637,275.942169 
	C459.533417,274.391602 459.320618,272.468628 458.283081,271.448914 
	C451.843262,265.120087 439.202759,264.140320 431.231506,269.195618 
	C429.408600,270.351685 427.758331,271.779999 425.553284,273.527893 
	C416.122070,274.000549 407.153870,273.745361 398.213623,274.134003 
	C388.832733,274.541718 379.478638,275.566742 370.112854,276.321991 
	C367.469513,273.913483 364.826141,271.504944 362.235565,269.144501 
	C363.646179,264.730865 363.646179,264.730865 359.015411,258.437317 
	C369.307800,253.846802 380.125854,252.359253 391.591736,251.950623 
	C398.379669,251.889481 404.739075,251.921616 411.638062,252.402222 
	C415.021240,254.994644 429.232666,256.074097 431.936188,254.226776 
	C432.505829,253.837555 432.655609,252.833908 432.998840,252.113373 
z"/>
<path fill="#C4CDD8" opacity="1.000000" stroke="none" 
	d="
M648.933472,468.001129 
	C649.040100,466.607239 649.146667,465.213318 649.153992,463.410156 
	C649.066406,459.964539 649.078003,456.928192 649.053528,453.112793 
	C648.950134,451.888367 648.882935,451.443085 648.867065,450.644043 
	C648.726746,449.628113 648.535034,448.965942 648.498108,448.111053 
	C648.722168,447.560669 648.620178,447.261475 648.346924,447.020782 
	C646.888123,439.948853 645.429321,432.876953 643.965149,425.413940 
	C649.008484,421.356476 654.057190,417.690186 659.443115,413.987915 
	C675.197388,448.633148 672.914368,482.664429 655.721741,516.737305 
	C655.248901,518.199585 655.081665,519.084045 654.914429,519.968445 
	C654.601501,519.991028 654.321106,520.098389 653.978516,520.497681 
	C652.907410,522.563477 651.931030,524.422180 650.914917,526.923218 
	C650.230835,528.332397 649.586548,529.099365 648.942261,529.866333 
	C646.845581,532.353821 644.634155,534.754761 642.678040,537.348267 
	C639.353149,541.756714 635.265564,543.730408 629.223633,541.680176 
	C626.845764,539.895691 625.027161,538.409302 623.208557,536.922852 
	C625.127930,533.246399 627.047302,529.569885 629.307739,525.369385 
	C630.457520,523.244690 631.266174,521.643982 632.074829,520.043274 
	C632.074768,520.043274 631.998718,520.021973 632.292847,519.846741 
	C633.745667,517.447876 634.904236,515.224243 636.062805,513.000610 
	C643.283142,500.634766 646.780273,487.082428 648.848877,472.277588 
	C648.914917,470.332642 648.924194,469.166870 648.933472,468.001129 
z"/>
<path fill="#F6F7F8" opacity="1.000000" stroke="none" 
	d="
M662.072266,595.418823 
	C668.532166,598.122192 671.363770,602.275208 670.393372,607.179871 
	C669.350464,612.451294 665.035034,615.697571 658.551514,615.712463 
	C640.089722,615.754883 621.627258,615.734375 603.165710,615.630310 
	C596.092896,615.590454 591.058167,611.086121 590.993164,605.091187 
	C590.937500,599.958679 596.284119,595.330200 602.808044,595.300659 
	C622.430969,595.211792 642.054626,595.277954 662.072266,595.418823 
z"/>
<path fill="#FAFBFC" opacity="1.000000" stroke="none" 
	d="
M371.002045,302.824524 
	C381.988403,303.837311 389.905640,310.191437 391.966034,319.649567 
	C393.950043,328.757019 389.484039,337.626617 380.761383,341.902191 
	C371.589905,346.397858 360.618591,343.905457 354.195618,335.867188 
	C348.593353,328.856018 348.713654,318.896759 354.649170,311.425171 
	C356.080994,309.622833 357.955811,308.172455 360.159424,306.201050 
	C364.128601,304.836121 367.565338,303.830322 371.002045,302.824524 
z"/>
<path fill="#0B1C28" opacity="1.000000" stroke="none" 
	d="
M371.012878,302.448669 
	C367.565338,303.830322 364.128601,304.836121 360.334564,305.916992 
	C357.583832,302.200348 356.309021,297.166901 350.133972,297.657806 
	C349.514496,297.707031 348.264099,295.841492 348.130554,294.762604 
	C347.826111,292.302277 347.769470,289.737762 348.147552,287.298523 
	C348.328125,286.133606 349.794556,284.199127 350.566040,284.252106 
	C355.540070,284.593750 357.675995,281.445343 359.523712,277.107056 
	C360.642731,278.287201 361.458008,279.147003 362.652435,280.463867 
	C363.354340,282.024841 363.677124,283.128784 364.067017,284.582214 
	C367.782623,287.885712 371.711151,289.520935 376.578735,288.347015 
	C381.559570,287.145813 383.432770,288.454834 384.000000,293.000000 
	C382.168182,299.452850 382.168182,299.452850 372.532074,297.179596 
	C372.038300,298.781464 371.531006,300.427155 371.012878,302.448669 
z"/>
<path fill="#F5F8FA" opacity="1.000000" stroke="none" 
	d="
M363.999908,284.232666 
	C363.677124,283.128784 363.354340,282.024841 362.996216,280.609009 
	C363.205475,279.943329 363.450104,279.589630 364.181305,279.100311 
	C365.444855,278.578979 366.221802,278.193298 366.998749,277.807587 
	C367.911011,277.464905 368.823303,277.122253 369.924225,276.550781 
	C379.478638,275.566742 388.832733,274.541718 398.213623,274.134003 
	C407.153870,273.745361 416.122070,274.000549 425.539856,273.886810 
	C432.609283,273.847260 439.230225,273.677124 445.815674,274.083099 
	C447.594635,274.192780 450.558746,275.865845 450.738098,277.137421 
	C451.226318,280.598206 448.095520,279.995026 445.856750,280.019226 
	C443.873383,280.040680 441.889526,280.019348 438.999023,280.013733 
	C434.394104,280.068085 430.696045,280.125610 426.997986,280.183136 
	C420.307434,280.137909 413.616882,280.092712 406.001160,280.048035 
	C396.326141,280.189087 387.576294,280.329559 378.460114,280.422424 
	C377.395782,280.602936 376.697815,280.831024 375.612091,281.019379 
	C371.482880,282.064026 367.741394,283.148346 363.999908,284.232666 
z"/>
<path fill="#FAFBFC" opacity="1.000000" stroke="none" 
	d="
M317.119873,412.607422 
	C317.324554,415.045166 317.933685,417.107635 317.565155,418.977386 
	C317.316345,420.239655 315.689240,421.230255 314.678680,422.342377 
	C313.755829,421.331757 312.555786,420.452087 311.997131,419.269440 
	C311.543427,418.308990 311.841187,416.985046 311.836609,415.822235 
	C311.741486,391.715973 311.569458,367.609467 311.635468,343.503632 
	C311.647156,339.243744 312.333038,334.909393 313.325836,330.757263 
	C313.915588,328.290955 315.710968,326.105621 318.177063,328.146851 
	C317.786530,334.537323 317.146729,340.423401 317.116852,346.312592 
	C317.005524,368.257904 317.094330,390.204193 317.119873,412.607422 
z"/>
<path fill="#0B1A26" opacity="1.000000" stroke="none" 
	d="
M364.067017,284.582214 
	C367.741394,283.148346 371.482880,282.064026 375.626343,281.392395 
	C376.574432,282.449860 377.120544,283.094604 377.666687,283.739380 
	C378.053284,282.649597 378.439880,281.559814 378.826447,280.470032 
	C387.576294,280.329559 396.326141,280.189087 405.538788,280.127991 
	C404.374969,283.845825 402.769714,287.494019 401.114105,291.119232 
	C400.030487,293.491943 400.430542,297.123199 396.294159,296.984283 
	C392.062164,296.842163 387.243103,298.450226 384.359070,293.074341 
	C383.432770,288.454834 381.559570,287.145813 376.578735,288.347015 
	C371.711151,289.520935 367.782623,287.885712 364.067017,284.582214 
z"/>
<path fill="#010C13" opacity="1.000000" stroke="none" 
	d="
M494.776611,668.930542 
	C492.659424,669.342041 490.342590,669.539124 488.025635,669.540833 
	C453.903168,669.565674 419.780731,669.564514 385.275116,669.408325 
	C386.250580,668.831970 387.608521,668.056885 388.967926,668.054199 
	C423.226959,667.986938 457.486145,667.995850 491.745270,668.026672 
	C492.689301,668.027466 493.632996,668.417053 494.776611,668.930542 
z"/>
<path fill="#010C13" opacity="1.000000" stroke="none" 
	d="
M637.734070,668.794861 
	C636.386536,669.265381 634.746948,669.576721 633.107300,669.577515 
	C603.711548,669.591736 574.315857,669.568359 544.471069,669.416931 
	C545.174500,668.853943 546.326172,668.056885 547.479675,668.054260 
	C576.666382,667.987610 605.853333,668.000488 635.040222,668.026733 
	C635.840942,668.027466 636.641418,668.329590 637.734070,668.794861 
z"/>
<path fill="#F5F8FA" opacity="1.000000" stroke="none" 
	d="
M509.930664,273.968811 
	C513.068909,273.999023 515.788513,273.694153 518.341614,274.211090 
	C519.493835,274.444397 520.314697,276.314392 521.285889,277.441833 
	C520.254272,278.321198 519.239441,279.939178 518.188354,279.963104 
	C509.737091,280.155426 501.275970,280.156525 492.826080,279.920258 
	C491.464203,279.882172 490.143280,278.377747 488.150848,277.148529 
	C495.125610,271.486053 502.651367,275.051575 509.930664,273.968811 
z"/>
<path fill="#0B1C28" opacity="1.000000" stroke="none" 
	d="
M412.311035,283.003113 
	C414.401886,283.045868 416.155182,282.770874 417.703064,283.213806 
	C419.841278,283.825592 420.761932,285.079865 418.691406,287.156281 
	C417.527863,288.323120 416.877197,289.987579 415.904785,291.363800 
	C415.279144,292.249298 414.533356,293.675690 413.764648,293.727844 
	C410.090210,293.977173 406.389526,293.839630 402.315552,292.932404 
	C407.611816,291.245972 405.328491,282.993042 412.311035,283.003113 
z"/>
<path fill="#E8EDEE" opacity="1.000000" stroke="none" 
	d="
M467.985046,273.861267 
	C469.189789,273.623535 470.131012,273.583649 471.430115,273.560120 
	C472.376129,275.470581 472.964264,277.364716 473.552368,279.258850 
	C471.607361,279.461395 469.244019,280.451935 467.810638,279.690887 
	C465.360962,278.390289 465.366058,275.993256 467.985046,273.861267 
z"/>
<path fill="#0C1C28" opacity="1.000000" stroke="none" 
	d="
M638.025024,411.886017 
	C639.699219,415.125763 641.226440,418.707550 642.760498,422.647034 
	C640.113403,421.696136 637.367615,420.532288 634.884827,418.954559 
	C634.399292,418.646027 634.602600,416.570007 635.079407,415.599701 
	C635.705750,414.325134 636.917847,413.338531 638.025024,411.886017 
z"/>
<path fill="#0C1C28" opacity="1.000000" stroke="none" 
	d="
M648.815735,450.997772 
	C648.882935,451.443085 648.950134,451.888367 648.952271,452.668091 
	C647.817688,453.923340 646.850952,455.029297 645.642578,455.699951 
	C644.834900,456.148193 643.398743,456.400665 642.761292,455.971741 
	C642.035217,455.483154 641.269653,453.636505 641.585449,453.250366 
	C643.400879,451.030365 645.531799,449.068390 647.951294,447.019836 
	C648.620178,447.261475 648.722168,447.560669 648.366211,448.397522 
	C648.324890,449.583710 648.570312,450.290741 648.815735,450.997772 
z"/>
<path fill="#0C1C28" opacity="1.000000" stroke="none" 
	d="
M621.802246,441.910034 
	C620.916443,439.822815 620.474670,437.770050 620.068787,435.357727 
	C621.689636,434.732574 623.274536,434.466919 624.816406,434.208527 
	C628.273438,439.924377 627.781860,441.355438 621.802246,441.910034 
z"/>
<path fill="#0B1C28" opacity="1.000000" stroke="none" 
	d="
M427.060364,280.535400 
	C430.696045,280.125610 434.394104,280.068085 438.546997,280.091064 
	C436.095306,285.034882 431.647888,285.302979 427.060364,280.535400 
z"/>
<path fill="#0B1C28" opacity="1.000000" stroke="none" 
	d="
M548.011230,252.416000 
	C550.705322,251.993332 553.410950,251.939865 556.558716,251.980896 
	C556.201172,253.674347 555.401611,255.273331 554.602112,256.872314 
	C552.409058,255.509949 550.215942,254.147583 548.011230,252.416000 
z"/>
<path fill="#010C13" opacity="1.000000" stroke="none" 
	d="
M540.782104,668.967896 
	C535.956055,669.362915 530.936646,669.447815 525.469666,669.397583 
	C530.210999,669.060852 535.399902,668.859375 540.782104,668.967896 
z"/>
<path fill="#010C13" opacity="1.000000" stroke="none" 
	d="
M517.778198,668.938232 
	C513.289062,669.325989 508.602814,669.408203 503.469147,669.357544 
	C507.874847,669.027283 512.727966,668.829956 517.778198,668.938232 
z"/>
<path fill="#0C1D28" opacity="1.000000" stroke="none" 
	d="
M606.922974,402.010590 
	C604.838135,399.522705 602.814026,396.669006 600.651245,393.489502 
	C603.231323,394.524323 605.950012,395.885010 608.872009,397.347443 
	C608.127075,399.042725 607.555359,400.343750 606.922974,402.010590 
z"/>
<path fill="#0C1C28" opacity="1.000000" stroke="none" 
	d="
M634.020020,403.952148 
	C635.317261,405.526672 636.228333,407.185028 637.170776,409.157288 
	C635.784729,409.432526 634.367310,409.393860 632.949951,409.355164 
	C633.177856,407.582092 633.405823,405.809052 634.020020,403.952148 
z"/>
<path fill="#0C1C28" opacity="1.000000" stroke="none" 
	d="
M623.524414,456.990967 
	C623.013489,455.288513 622.877258,453.574585 622.788818,451.432678 
	C624.189270,451.829559 625.541992,452.654388 626.894653,453.479248 
	C625.896179,454.645996 624.897644,455.812714 623.524414,456.990967 
z"/>
<path fill="#0C1C28" opacity="1.000000" stroke="none" 
	d="
M645.049072,342.467041 
	C646.435608,342.363708 647.872864,342.593964 649.652222,342.954224 
	C648.215820,345.526245 646.563538,345.789703 645.049072,342.467041 
z"/>
<path fill="#0C1C28" opacity="1.000000" stroke="none" 
	d="
M628.572388,394.787476 
	C629.370239,395.262573 629.791809,395.810699 630.267944,396.618042 
	C629.141846,396.679352 627.961121,396.481445 626.780457,396.283539 
	C627.252380,395.809204 627.724243,395.334839 628.572388,394.787476 
z"/>
<path fill="#0B1C28" opacity="1.000000" stroke="none" 
	d="
M366.922913,277.488281 
	C366.221802,278.193298 365.444855,278.578979 364.333435,278.939453 
	C364.389496,275.890015 364.757996,275.664215 366.922913,277.488281 
z"/>
<path fill="#0C1C28" opacity="1.000000" stroke="none" 
	d="
M629.354370,401.494019 
	C629.829163,401.912689 630.047546,402.458099 630.265930,403.003540 
	C629.711426,403.097412 629.156921,403.191254 628.602417,403.285095 
	C628.767639,402.730316 628.932861,402.175537 629.354370,401.494019 
z"/>
<path fill="#0B1C28" opacity="1.000000" stroke="none" 
	d="
M458.262939,285.501495 
	C457.548462,285.506958 457.041199,285.310211 456.533936,285.113464 
	C456.811218,284.811707 457.088531,284.509918 457.365784,284.208130 
	C457.733887,284.571838 458.101990,284.935577 458.262939,285.501495 
z"/>
<path fill="#0C1C28" opacity="1.000000" stroke="none" 
	d="
M646.003174,386.930298 
	C645.273682,386.577301 644.794006,386.055878 644.266968,385.265656 
	C644.897461,385.585205 645.575256,386.173553 646.003174,386.930298 
z"/>
<path fill="#0C1C28" opacity="1.000000" stroke="none" 
	d="
M655.226196,519.933899 
	C655.081665,519.084045 655.248901,518.199585 655.675171,517.087769 
	C655.802124,517.873291 655.670105,518.886353 655.226196,519.933899 
z"/>
<path fill="#0C1C28" opacity="1.000000" stroke="none" 
	d="
M641.049072,341.426208 
	C641.563416,341.210846 642.128418,341.280304 642.887085,341.561951 
	C642.420410,341.753113 641.760010,341.732056 641.049072,341.426208 
z"/>
<path fill="#0C1C28" opacity="1.000000" stroke="none" 
	d="
M623.473755,446.322510 
	C623.153442,446.106445 623.218506,445.955353 623.182983,445.923950 
	C623.744812,445.767639 624.339966,445.621674 624.943848,445.555511 
	C624.994934,445.549927 625.104492,446.078156 625.186890,446.358398 
	C624.722595,446.418457 624.258362,446.478516 623.473755,446.322510 
z"/>
<path fill="#0C1C28" opacity="1.000000" stroke="none" 
	d="
M660.090576,391.072876 
	C660.166992,391.397827 660.106201,391.365906 660.137207,391.374756 
	C659.663513,390.937836 659.158752,390.492096 658.654053,390.046326 
	C658.871765,389.919525 659.252014,389.652985 659.281799,389.687622 
	C659.560181,390.011627 659.778442,390.387268 660.090576,391.072876 
z"/>
<path fill="#0C1C28" opacity="1.000000" stroke="none" 
	d="
M653.781799,396.085815 
	C653.423523,396.373291 652.575562,396.643829 651.533020,396.566895 
	C651.989685,396.169220 652.640869,396.119049 653.781799,396.085815 
z"/>
<path fill="#0C1C28" opacity="1.000000" stroke="none" 
	d="
M562.688477,233.820923 
	C562.497192,233.660019 562.507874,233.492477 562.707642,233.158554 
	C563.011658,233.206451 563.126709,233.420746 563.241760,233.635056 
	C563.124634,233.694824 563.007507,233.754562 562.688477,233.820923 
z"/>
<path fill="#0C1C28" opacity="1.000000" stroke="none" 
	d="
M637.151733,340.287079 
	C637.329407,340.181061 637.653442,340.275848 638.075012,340.651306 
	C637.833008,340.878662 637.541504,340.730652 637.151733,340.287079 
z"/>
<path fill="#0A1A25" opacity="1.000000" stroke="none" 
	d="
M568.540527,219.995544 
	C569.176941,218.000198 570.220093,216.001526 571.565308,213.821259 
	C571.404663,215.991913 573.919006,219.712616 568.540527,219.995544 
z"/>
<path fill="#000000" opacity="1.000000" stroke="none" 
	d="
M508.778564,789.640747 
	C500.911530,797.232666 492.950409,797.432251 487.093384,790.441284 
	C484.011383,786.762634 483.238281,778.880615 485.539978,774.603760 
	C488.192139,769.675720 495.212891,766.153320 500.503479,767.096497 
	C508.902283,768.593811 513.613098,780.888367 508.778564,789.640747 
z"/>
<path fill="#000000" opacity="1.000000" stroke="none" 
	d="
M634.445923,784.110840 
	C639.365112,781.244812 642.407715,784.139587 644.916016,787.255371 
	C647.380920,790.317139 647.874695,793.897888 645.083862,797.296204 
	C642.209412,800.796265 638.802979,801.860046 634.492310,799.983398 
	C630.358215,798.183594 628.287781,792.978333 630.532043,789.059448 
	C631.505493,787.359619 632.934875,785.920837 634.445923,784.110840 
z"/>
<path fill="#0A1A25" opacity="1.000000" stroke="none" 
	d="
M432.536743,252.031113 
	C432.655609,252.833908 432.505829,253.837555 431.936188,254.226776 
	C429.232666,256.074097 415.021240,254.994644 412.089600,252.487305 
	C418.692596,252.065582 425.383606,252.007217 432.536743,252.031113 
z"/>
<path fill="#0C1D28" opacity="1.000000" stroke="none" 
	d="
M570.552002,489.715637 
	C556.656494,492.339813 545.341797,487.061157 539.778442,475.633026 
	C533.962769,463.686523 536.642090,450.774780 546.825134,441.744965 
	C553.325256,435.980927 560.947693,434.506622 569.164062,436.520477 
	C580.893127,439.395264 590.486755,450.596985 591.026001,461.557068 
	C591.677551,474.798615 584.569946,484.734833 570.552002,489.715637 
M551.789917,458.535828 
	C555.731201,463.499573 560.161072,464.738800 565.225708,462.294464 
	C570.049744,459.966309 572.343323,455.197876 571.182251,449.910767 
	C570.076477,444.875702 566.432983,441.966858 561.201050,441.942108 
	C556.233032,441.918610 551.457153,445.508575 550.507385,450.693878 
	C550.089355,452.976349 551.006714,455.503448 551.789917,458.535828 
z"/>
<path fill="#0D1E2B" opacity="1.000000" stroke="none" 
	d="
M433.604156,446.678986 
	C442.506683,435.625916 453.919891,432.763672 465.620514,438.411926 
	C477.239471,444.020813 484.209473,457.065948 481.804626,468.702393 
	C479.299835,480.822388 467.425659,490.649414 455.016876,490.871826 
	C437.408844,491.187378 423.921661,471.839172 429.825348,454.607758 
	C430.730652,451.965393 432.187042,449.511810 433.604156,446.678986 
M456.302795,442.720825 
	C449.210571,440.549469 442.968323,443.775085 441.247925,450.500275 
	C439.808441,456.127533 443.931213,462.187836 449.994812,463.357819 
	C454.354614,464.199066 459.328461,461.551666 461.419922,457.276642 
	C463.918884,452.168640 462.487915,447.551056 456.302795,442.720825 
z"/>
<path fill="#0D1F2B" opacity="1.000000" stroke="none" 
	d="
M520.372070,491.263611 
	C523.087219,487.449768 526.268127,486.995544 529.620056,489.426331 
	C533.242859,492.053589 534.558777,495.846893 532.744385,499.984100 
	C528.680603,509.250488 520.961182,513.943909 511.268555,514.638123 
	C501.117065,515.365112 492.674316,511.370270 487.461884,502.280792 
	C486.165070,500.019379 485.504150,496.775635 486.012634,494.281403 
	C486.463989,492.067535 488.590454,489.358337 490.636292,488.563568 
	C492.361328,487.893433 495.087372,489.524170 497.256256,490.414459 
	C498.072449,490.749451 498.582184,491.854889 499.206818,492.629089 
	C506.996582,502.283264 513.613525,501.948517 520.372070,491.263611 
z"/>
<path fill="#0D1F2B" opacity="1.000000" stroke="none" 
	d="
M706.840271,257.403290 
	C711.147339,269.407349 706.101196,279.796112 694.772888,282.916962 
	C684.237305,285.819427 673.660217,279.179749 671.489014,268.300781 
	C669.806519,259.870514 675.011597,250.541473 683.196594,247.317368 
	C692.106873,243.807556 701.038818,247.510574 706.840271,257.403290 
z"/>
<path fill="#0D1F2B" opacity="1.000000" stroke="none" 
	d="
M633.760559,246.410492 
	C644.604431,248.299683 651.293030,255.477203 651.584045,265.172821 
	C651.829407,273.346985 646.064819,280.720581 637.612122,283.044464 
	C628.057983,285.671204 617.685486,279.650696 615.087463,269.970490 
	C612.470703,260.220123 618.782227,249.319626 628.437073,247.018982 
	C630.041626,246.636627 631.720154,246.564835 633.760559,246.410492 
z"/>
<path fill="#0A1A25" opacity="1.000000" stroke="none" 
	d="
M622.835632,537.006714 
	C625.027161,538.409302 626.845764,539.895691 628.843750,541.650635 
	C628.141907,543.253174 627.524414,545.057434 626.284912,545.752625 
	C625.486755,546.200317 622.781372,545.209961 622.651550,544.533752 
	C622.189880,542.129211 622.466003,539.583069 622.835632,537.006714 
z"/>
<path fill="#0A1A25" opacity="1.000000" stroke="none" 
	d="
M605.029419,529.382690 
	C606.891296,530.155640 608.373352,530.949890 609.855347,531.744141 
	C608.445007,533.822205 607.034668,535.900208 605.232422,538.555725 
	C602.391846,535.001221 601.847839,532.294128 605.029419,529.382690 
z"/>
<path fill="#0A1A25" opacity="1.000000" stroke="none" 
	d="
M649.171753,530.143921 
	C649.586548,529.099365 650.230835,528.332397 651.006714,527.284180 
	C655.453247,528.028870 655.453247,528.028870 655.567444,532.590820 
	C653.429688,531.838745 651.415466,531.130127 649.171753,530.143921 
z"/>
<path fill="#0D1F2B" opacity="1.000000" stroke="none" 
	d="
M635.712769,513.059509 
	C634.904236,515.224243 633.745667,517.447876 632.320007,519.875427 
	C633.156189,517.759033 634.259460,515.438721 635.712769,513.059509 
z"/>
<path fill="#0A1A25" opacity="1.000000" stroke="none" 
	d="
M648.564331,468.013214 
	C648.924194,469.166870 648.914917,470.332642 648.816528,471.837433 
	C646.803406,471.016663 643.771057,469.998932 648.564331,468.013214 
z"/>
<path fill="#0D1F2B" opacity="1.000000" stroke="none" 
	d="
M631.697205,520.082275 
	C631.266174,521.643982 630.457520,523.244690 629.366333,525.030823 
	C629.828979,523.517944 630.574280,521.819580 631.697205,520.082275 
z"/>
<path fill="#0A1A25" opacity="1.000000" stroke="none" 
	d="
M648.867065,450.644043 
	C648.570312,450.290741 648.324890,449.583710 648.211426,448.590210 
	C648.535034,448.965942 648.726746,449.628113 648.867065,450.644043 
z"/>
<path fill="#0B1C28" opacity="1.000000" stroke="none" 
	d="
M378.460114,280.422424 
	C378.439880,281.559814 378.053284,282.649597 377.666687,283.739380 
	C377.120544,283.094604 376.574432,282.449860 376.014038,281.432068 
	C376.697815,280.831024 377.395782,280.602936 378.460114,280.422424 
z"/>
<path fill="#F7F9FA" opacity="1.000000" stroke="none" 
	d="
M551.553833,458.227661 
	C551.006714,455.503448 550.089355,452.976349 550.507385,450.693878 
	C551.457153,445.508575 556.233032,441.918610 561.201050,441.942108 
	C566.432983,441.966858 570.076477,444.875702 571.182251,449.910767 
	C572.343323,455.197876 570.049744,459.966309 565.225708,462.294464 
	C560.161072,464.738800 555.731201,463.499573 551.553833,458.227661 
z"/>
<path fill="#F7F9FA" opacity="1.000000" stroke="none" 
	d="
M456.659790,442.894531 
	C462.487915,447.551056 463.918884,452.168640 461.419922,457.276642 
	C459.328461,461.551666 454.354614,464.199066 449.994812,463.357819 
	C443.931213,462.187836 439.808441,456.127533 441.247925,450.500275 
	C442.968323,443.775085 449.210571,440.549469 456.659790,442.894531 
z"/>
</svg>